<?xml version="1.0" encoding="utf-8"?>
<!-- Generator: Adobe Illustrator 27.5.0, SVG Export Plug-In . SVG Version: 6.00 Build 0)  -->
<svg version="1.1" id="Layer_1" xmlns="http://www.w3.org/2000/svg" xmlns:xlink="http://www.w3.org/1999/xlink" x="0px" y="0px"
	 viewBox="0 0 4000 4000" style="enable-background:new 0 0 4000 4000;" xml:space="preserve">
<g>
	<rect style="fill:#CCEEFF;" width="4000" height="4000"/>
	<g>
		<g>
			<path style="fill:#FCD5B4;" d="M2430.2,3616.905l-93,10.05l-273.95,29.65l-25.05-34.401c-21.6-100.599,15.65-228.75,15.65-228.75
				s2.55-1.4,6.8-3.7c17.4-9.449,63.05-33.95,75-38.099c14.9-5.1,182.5-40.5,182.5,27.949c0,68.4,43.65,111.05,43.65,111.05
				L2430.2,3616.905z"/>
		</g>
		<g style="opacity:0.2;">
			<path style="fill:#00046A;" d="M2337.2,3626.955l-273.95,29.65l-25.05-34.401c-21.6-100.599,15.65-228.75,15.65-228.75
				s2.55-1.4,6.8-3.7l35.85,29.7c0,0-40.2,204.4,118,168.3C2273.05,3574.405,2316.3,3595.454,2337.2,3626.955z"/>
		</g>
		<g>
			<path style="fill:#00046A;" d="M2063.264,3669.26c-4.023,0-7.842-1.914-10.239-5.205l-25.078-34.409
				c-1.045-1.436-1.777-3.071-2.153-4.805c-22.021-102.5,14.326-229.546,15.884-234.907c0.938-3.232,3.125-5.957,6.074-7.573
				c6.948-3.809,68.335-37.368,83.794-42.681c1.191-0.405,129.556-33.721,179.658,2.041c12.832,9.155,19.609,22.251,19.609,37.871
				c0,61.924,39.448,101.641,39.844,102.036c0.889,0.874,1.665,1.904,2.261,2.998l68.433,126.226
				c2.012,3.716,2.041,8.188,0.078,11.929s-5.659,6.255-9.858,6.709l-366.943,39.697
				C2064.172,3669.235,2063.713,3669.26,2063.264,3669.26z M2050.032,3616.916l19.155,26.284l340.874-36.875l-58.594-108.076
				c-8.096-8.545-45.996-52.109-45.996-118.657c0-7.485-2.773-12.803-8.994-17.241c-33.008-23.56-138.618-4.907-156.699,1.304
				c-9.575,3.291-48.472,23.828-75.122,38.354C2058.323,3426.061,2032.781,3532.092,2050.032,3616.916z"/>
		</g>
		<g>
			<path style="fill:#0096F0;" d="M2450.55,3657.505c0,0-135.7,43.35-322.75,20.95c0,0.05-0.05,0-0.05,0
				c-29.9-3.55-61.1-8.85-93.25-16.2c0,0-8.75-5.35-14.15-13.5c-8.4-12.65,2.9-29.25,17.85-26.55c29,5.15,104.2,15.601,204.55,7.55
				c0,0,6.949-135.85,119.05-139.1c0,0,23.1,29.6,65.8,58.25c1.5,0.95,3.05,2,4.6,3
				C2477.8,3581.405,2450.55,3657.505,2450.55,3657.505z"/>
		</g>
		<g style="opacity:0.2;">
			<path style="fill:#00046A;" d="M2450.55,3657.505c0,0-135.7,43.35-322.75,20.95c124.249-8.45,314.299-54.349,299.8-129.55
				c1.5,0.95,3.05,2,4.6,3C2477.8,3581.405,2450.55,3657.505,2450.55,3657.505z"/>
		</g>
		<g>
			<path style="fill:#00046A;" d="M2236.702,3697.731c-60.215,0-129.868-5.913-205.029-23.145c-1.338-0.308-2.617-0.83-3.789-1.548
				c-1.138-0.698-11.309-7.104-18.071-17.261c-6.689-10.039-6.704-22.603-0.039-32.778c6.685-10.205,18.735-15.439,30.635-13.296
				c26.436,4.707,96.646,14.653,190.664,8.208c6.226-52.827,39.209-137.295,130.337-139.912c3.945-0.195,7.866,1.685,10.352,4.863
				c0.229,0.288,24.238,30.542,67.314,58.403c53.442,34.561,24.648,117.041,23.394,120.532c-1.328,3.716-4.316,6.602-8.076,7.798
				C2449.241,3671.242,2364.143,3697.726,2236.702,3697.731z M2039.646,3650.407c202.354,45.801,367.188,6.084,400.796-3.154
				c4.722-16.958,14.932-65.264-15.132-84.707c-36.406-23.545-59.971-48.345-69.175-58.892
				c-93.203,7.393-100.439,121.797-100.708,126.763c-0.342,6.338-5.317,11.46-11.646,11.968
				c-102.324,8.213-179.424-2.671-207.817-7.729c-2.817-0.493-4.434,1.387-4.985,2.227c-0.747,1.143-1.367,2.91-0.073,4.849
				C2033.518,3645.656,2037.507,3648.854,2039.646,3650.407z"/>
		</g>
		<g>
			<path style="fill:#FCD5B4;" d="M1749.4,3594.804c-4.4,4.9-36.35,22.75-66.9,37.95c-28.1,14.05-54.95,25.9-58.05,23.55
				c-6.45-5-103.651-14.9-103.651-14.9l-30.9-23.3c0,0,0,0,0-0.05c-0.65-3.5-24.75-141.2,7.85-230.55
				c11.899-32.75,49-39.35,91.4-34.4c74.85,8.7,166.45,53.25,166.45,53.25s-4.9,38.05,20.55,67.45c0,0,0.05,0.1,0.15,0.25
				c1.7,1.949,3.05,4.1,4.05,6.449C1795.8,3514.055,1757.3,3586.004,1749.4,3594.804z"/>
		</g>
		<g style="opacity:0.2;">
			<path style="fill:#00046A;" d="M1866.901,3660.272c-111.95,32.4-237.8,35.1-377.15,9c-7.25-1.35-13.75-5.65-17.65-11.95
				c-4.85-7.8-8.199-18.5,2.6-25.55c4.501-2.95,9.85-4.15,15.2-3.8c-0.65-3.5-24.75-141.2,7.85-230.55
				c11.899-32.75,49-39.35,91.4-34.4l-27.001,72.35c0,0-72.1,144.05-9.15,188.7c10.95,7.75,26.75,13.25,45.3,16.6
				c24.7,4.45,54.301,5.049,84.2,2c76.9-7.7,155.55-39.5,156.15-92c0.05-3,0.1-5.9,0.25-8.651
				C1861.551,3567.021,1877.801,3609.622,1866.901,3660.272z"/>
		</g>
		<g>
			<path style="fill:#00046A;" d="M1624.91,3669.455c-3.34,0-5.234-0.991-6.982-2.241c-9.209-2.915-56.577-8.926-98.428-13.198
				c-6.963-0.708-12.036-6.929-11.323-13.892c0.708-6.963,6.973-12.041,13.892-11.323c72.598,7.407,96.162,11.978,104.795,14.819
				c18.325-4.561,104.107-49.082,113.399-57.588c8.799-10.142,44.238-83.228,26.313-103.931
				c-20.972-24.224-24.019-53.218-24.038-67.886c-47.979-22.178-160.195-64.946-210.83-44.448
				c-11.064,4.478-18.286,11.704-22.07,22.1c-31.401,86.172-7.515,222.632-7.271,223.999c1.23,6.89-3.35,13.477-10.239,14.707
				c-6.899,1.25-13.472-3.345-14.712-10.234c-1.05-5.854-25.352-144.512,8.403-237.153c6.299-17.275,18.54-29.697,36.392-36.919
				c74.893-30.303,232.251,45.469,238.911,48.706c4.888,2.378,7.715,7.607,7.031,12.998c-0.034,0.278-3.652,33.008,17.583,57.539
				c32.896,37.993-17.925,127.749-26.899,137.749c-8.154,9.087-57.178,34.072-66.924,38.989
				C1649.295,3663.747,1632.937,3669.455,1624.91,3669.455z"/>
		</g>
		<g>
			<path style="fill:#9DA9B9;" d="M2368.4,3287.555c-1.35,36.55-2,73.35-1.65,109.9c-147.3,43.6-340.7,8.9-340.7,8.9
				c-54.5-166.85-89.05-335.551-79.05-508.25c0.049-1.65,0.15-3.3,0.25-4.95c-59.95,68.6-101.75,251.2-125.5,385.05
				c-15.55,87.7-23.3,154.45-23.3,154.45c-210.699,28.25-337.15-40.65-337.15-40.65c-40.45-278.4-47.6-535.45-6.9-766.6l73.4,11.749
				l878.6,140.45C2410.7,2861.405,2376.7,3069.405,2368.4,3287.555z"/>
		</g>
		<g style="opacity:0.2;">
			<path style="fill:#00046A;" d="M2366.75,3397.455c-147.3,43.6-340.7,8.9-340.7,8.9c-54.5-166.85-89.05-335.551-79.05-508.25
				l100.4-26.3c0,0-52.05,117.05-24.8,287.6c27.3,170.6,212.6,276.5,345.8,128.15
				C2367.05,3324.105,2366.4,3360.904,2366.75,3397.455z"/>
		</g>
		<g style="opacity:0.2;">
			<path style="fill:#00046A;" d="M1821.75,3278.205c-15.55,87.7-23.3,154.45-23.3,154.45c-210.699,28.25-337.15-40.65-337.15-40.65
				c-40.45-278.4-47.6-535.45-6.9-766.6l73.4,11.749l8.35,34.351c0,0-53.55,160.649-23.8,428.4
				C1542.1,3367.705,1682.7,3469.804,1821.75,3278.205z"/>
		</g>
		<g>
			<path style="fill:#00046A;" d="M1697.644,3452.189c-150.322,0.005-238.037-46.685-242.427-49.077
				c-3.506-1.909-5.903-5.356-6.475-9.307c-43.369-298.403-45.601-550.476-6.821-770.623c1.211-6.892,7.769-11.526,14.678-10.283
				c6.894,1.213,11.499,7.786,10.283,14.678c-38.018,215.83-36.065,463.171,5.986,755.979
				c25.757,11.997,140.117,58.887,314.209,37.769c8.271-66.304,57.324-429.707,150.605-536.519
				c3.569-4.087,9.336-5.452,14.365-3.384c5.02,2.063,8.169,7.095,7.827,12.51c-9.487,152.158,14.629,311.587,75.859,501.172
				c35.728,5.522,193.022,26.65,318.257-7.222c-0.713-145.161,14.067-292.578,25.991-411.528
				c8.838-88.206,15.825-157.876,13.765-198.101c-0.356-6.99,5.02-12.944,12.007-13.303c6.943-0.376,12.949,5.017,13.306,12.009
				c2.158,42.139-4.912,112.651-13.857,201.924c-12.129,120.981-27.222,271.548-25.796,418.438
				c0.059,5.659-3.647,10.664-9.072,12.275c-148.442,43.975-338.486,10.684-346.499,9.248c-4.595-0.825-8.359-4.106-9.81-8.54
				c-58.018-177.583-84.189-329.395-81.279-473.462c-79.766,144.17-121.24,493.423-121.689,497.271
				c-0.669,5.757-5.161,10.327-10.903,11.094C1763.372,3450.143,1729.124,3452.189,1697.644,3452.189z"/>
		</g>
		<g>
			<path style="fill:#00046A;" d="M1947.944,2880.747l47.209-2.166c2.795-0.127,5.166,2.036,5.295,4.832
				c0.1,2.224-1.257,4.182-3.22,4.951l-44.031,17.178c-6.606,2.578-14.055-0.691-16.631-7.297
				c-2.578-6.609,0.688-14.055,7.297-16.633C1945.188,2881.094,1946.599,2880.813,1947.944,2880.747z"/>
		</g>
		<g>
			<path style="fill:#D1623C;" d="M2420.3,2771.205c-275.35,55.35-511.5,22.5-683.9-27.5c-192.1-55.7-305.1-132.7-305.1-132.7
				l22.5-38.7l2.75-4.75l116.1,17.9c0,0.05,0,0.05,0,0.05l836.75,129.15c2.9,5.05,5.15,9.9,6.95,14.401
				C2426.35,2754.704,2420.3,2771.205,2420.3,2771.205z"/>
		</g>
		<g style="opacity:0.2;">
			<path style="fill:#00046A;" d="M1453.8,2572.305l-22.5,38.7c0,0,113,77,305.1,132.7c-126.2-48.75-116.65-80.95-104.05-93.95
				c4.15-4.35,8.7-6.55,8.7-6.55c-38.65-21.5-59.25-40.8-68.4-57.7c0,0,0,0,0-0.05L1453.8,2572.305z"/>
		</g>
		<g>
			<path style="fill:#00046A;" d="M2134.28,2812.431c-176.099,0.005-324.097-31.982-430.591-65.349
				c-174.272-54.602-275.327-122.712-279.541-125.586c-5.498-3.743-7.163-11.096-3.823-16.843l25.288-43.491
				c3.521-6.052,11.274-8.108,17.329-4.585c6.05,3.518,8.101,11.274,4.585,17.324l-19.18,32.986
				c29.497,18.252,123.325,72.383,263.887,116.311c156.104,48.784,403.208,94.529,697.173,37.227
				c0.474-7.559-0.679-21.433-11.021-39.46c-3.481-6.072-1.382-13.816,4.692-17.297c6.064-3.477,13.813-1.384,17.3,4.69
				c21.655,37.766,12.871,64.321,11.802,67.224c-1.528,4.126-5.078,7.166-9.395,8.032
				C2320.564,2804.162,2223.777,2812.428,2134.28,2812.431z"/>
		</g>
		<g>
			<path style="fill:#FDF2E4;" d="M2943.45,2281.754c-1.55,10.85-3.9,22.25-7.2,33.85c-0.45,1.55-0.9,3.05-1.35,4.6
				c-22.95,76.5-85.2,161.1-210.15,166.8c-146.55,6.7-233.049-93.2-233.049-93.2c-14.901,180.5-64.451,333.2-64.451,333.2
				c-3.65,0.7-7.25,1.4-10.9,2.05c-80.3,14.95-159.6,22.45-238.1,23.099c-186.35,1.5-368-35.45-545.9-102.4
				c-59.9-22.55-119.399-48.5-178.55-77.45c-7.5-3.75-15-7.45-22.5-11.25c3.85-76.3,39.1-157.7,57.15-194.8
				c6.3-13,10.5-20.55,10.5-20.55s141.35-358.5,154-384.3c12.65-25.8,231.799-121.4,231.799-121.4s385.551-81.9,563.3,23.7
				c1.5,0.9,3,1.8,4.5,2.75c60.35,36.55,109.25,81.05,147.5,123.6c72.4,80.6,106.35,154.35,106.35,154.35
				c6.6-3.1,13.5-5.5,20.15-7.35c22.5-6.2,42.85-6.05,42.85-6.05L2943.45,2281.754z"/>
		</g>
		<g style="opacity:0.2;">
			<path style="fill:#00046A;" d="M2600.05,1990.055c-6.9-3.7-14.25-8.3-22.05-13.75c-115.55-80.85-261.1,8.9-261.1,8.9l-0.75-42.65
				c0,0-7.95-13.85,0.75-30.55c8.7-16.65,45.85-20,112.301-38.85c9.6-2.75,17.25-4.95,23.35-6.7
				C2512.9,1903.004,2561.8,1947.505,2600.05,1990.055z"/>
		</g>
		<g style="opacity:0.2;">
			<path style="fill:#00046A;" d="M2934.9,2320.205c-22.95,76.5-85.2,161.1-210.15,166.8c-146.55,6.7-233.049-93.2-233.049-93.2
				c-14.901,180.5-64.451,333.2-64.451,333.2c-3.65,0.7-7.25,1.4-10.9,2.05c-80.3,14.95-159.6,22.45-238.1,23.099
				c174.3-77.3,262.8-279.85,306-591.799l9.5,27.949c24.15,266.65,249.35,286.35,376.3,141.55L2934.9,2320.205z"/>
		</g>
		<g style="opacity:0.2;">
			<path style="fill:#00046A;" d="M1641.05,2643.205c0,0-4.55,2.2-8.7,6.55c-59.9-22.55-119.399-48.5-178.55-77.45
				c-7.5-3.75-15-7.45-22.5-11.25c3.85-76.3,39.1-157.7,57.15-194.8c18-11.75,25.601-14.6,46.951-16.85
				c42.55-4.45,75.9,14.9,75.9,14.9l14.45,140.1c0,0-81.1,29.1-53.1,81.05c0,0.05,0,0.05,0,0.05
				C1581.8,2602.405,1602.4,2621.704,1641.05,2643.205z"/>
		</g>
		<g>
			<path style="fill:#D1623C;" d="M2943.45,2281.754c-1.55,10.85-3.9,22.25-7.2,33.85h-0.05
				c-209.7,103.5-209.65-178.55-209.65-178.55c22.5-6.2,42.85-6.05,42.85-6.05L2943.45,2281.754z"/>
		</g>
		<g>
			<path style="fill:#00046A;" d="M2166.252,2765.038c-240.932,0.01-485.332-63.804-740.679-192.668
				c-4.478-2.258-7.202-6.946-6.948-11.953c5.127-101.45,62.861-209.194,68.853-220.12
				c9.072-23.013,141.528-358.872,154.097-384.475c13.281-27.039,170.938-98.125,238.105-127.434
				c0.781-0.342,1.602-0.603,2.437-0.781c15.938-3.381,392.48-81.675,572.417,25.22c155.532,92.402,237.046,234.734,257.988,275.339
				c27.759-9.919,55.674-9.832,56.953-9.844c3.018,0.022,5.923,1.118,8.203,3.093l174.048,150.742
				c3.257,2.822,4.858,7.104,4.248,11.372c-13.638,95.476-82.227,209.377-230.645,216.157
				c-111.631,5.085-189.15-48.384-223.457-78.315c-17.178,168.311-62.114,308.105-62.588,309.57
				c-1.426,4.382-5.112,7.646-9.639,8.525C2342.102,2756.491,2254.382,2765.036,2166.252,2765.038z M1444.475,2553.503
				c338.11,169.07,656.519,222.258,972.905,162.51c9.736-32.029,48.896-168.081,61.68-323.247c0.42-5.085,3.848-9.421,8.696-11.006
				c4.849-1.587,10.176-0.107,13.516,3.75c0.815,0.935,84.546,95.122,222.905,88.86c129.468-5.916,191.177-103.237,205.645-187.654
				l-165.01-142.913c-9.629,0.471-33.057,2.585-52.979,12.031c-3.057,1.455-6.558,1.619-9.751,0.461
				c-3.179-1.152-5.771-3.533-7.188-6.606c-0.791-1.716-81.235-172.844-253.311-275.071
				c-166.528-98.938-528.96-27.368-552.979-22.471c-102.744,44.885-214.492,100.073-224.438,115.137
				c-9.678,19.741-104.595,259.231-153.408,383.069c-0.205,0.515-0.444,1.023-0.713,1.509
				C1509.451,2352.929,1452.224,2456.952,1444.475,2553.503z M1498.967,2345.705h0.049H1498.967z"/>
		</g>
		<g>
			<g>
				<path style="fill:#F6A341;" d="M2262.2,3677.855v1.349c0,23.4-18.95,42.55-42.5,42.55c-22.85,0-41.6-18.05-42.5-40.9
					l-39.85-1023.75l-0.2-5.3c-156.749-52.95-282.55,16.5-329.1,48.601c-12.7,8.75-19.5,14.7-19.5,14.7
					c-32.7-0.7-40-20.2-39.05-39.45c1-21.55,13.849-40.9,32.65-51.5c131.2-74.15,243.85-105.601,345.15-73.9
					c21.25,6.65,41.95,16.1,62.25,28.45c23.9,14.55,38.75,40.3,39.651,68.3L2262.2,3677.855z"/>
			</g>
			<g style="opacity:0.2;">
				<path style="fill:#00046A;" d="M2229.2,2647.005c0,0-47.85-22.75-91.851,10.1l-0.2-5.3c-156.749-52.95-282.55,16.5-329.1,48.601
					c-16.5-17.401-31.95-41.4-25.9-76.25c131.2-74.15,243.85-105.601,345.15-73.9c0,0,5.75,79.6,90.9,79.6L2229.2,2647.005z"/>
			</g>
			<g>
				<path style="fill:#00046A;" d="M2219.695,3734.411c-29.766,0-53.989-23.296-55.146-53.042l-39.717-1020.266
					c-186.152-57.986-326.519,62.317-327.93,63.56c-2.388,2.087-5.444,3.127-8.638,3.135c-17.349-0.396-30.679-5.459-39.619-15.051
					c-8.599-9.224-12.578-21.909-11.826-37.705c1.201-25.239,16.182-48.962,39.092-61.909
					c177.476-100.3,307.08-114.26,420.244-45.266c27.588,16.821,44.678,46.245,45.713,78.713l32.988,1030.879
					c0.483,15.063-5.024,29.326-15.513,40.156C2248.855,3728.449,2234.773,3734.411,2219.695,3734.411z M2020.867,2619.611
					c37.227,0,77.603,5.73,120.337,20.161c4.98,1.682,8.408,6.262,8.608,11.514l40.059,1029.097
					c0.63,16.084,13.726,28.687,29.824,28.687c8.154,0,15.767-3.228,21.44-9.087c5.669-5.854,8.652-13.564,8.389-21.714
					l-32.988-1030.879c-0.762-23.892-13.315-45.53-33.574-57.883c-104.37-63.638-226.074-49.546-394.58,45.691
					c-15.396,8.701-25.454,24.429-26.24,41.05c-0.415,8.713,1.279,15.178,5.044,19.216c3.472,3.723,9.209,5.979,17.09,6.731
					C1804.426,2685.917,1894.314,2619.611,2020.867,2619.611z"/>
			</g>
		</g>
		<g>
			<g>
				<path style="fill:#FCD5B4;" d="M2042.3,2666.305c0,0-20.699,42.6-69.3,16.6c0,0-25.75,20.049-47.1,0.499
					c0,0-105.499,6.801-121-103.149c8.9-30.05,21.15-56,36.95-77.75c5.6-7.7,11.7-14.85,18.15-21.5c0.15-0.1,0.3-0.2,0.4-0.35
					c19.6-19.95,43.3-34.95,71.3-44.85c0,0,80.499,57.55,118.049,92.5c0,0-17.1,13.4-5.95,28.251c6.7,8.949,26.6,38.65,42.35,67.1
					c10.45,18.85,19.1,37.15,20.85,48.6C2111.5,2700.854,2075.4,2706.455,2042.3,2666.305z"/>
			</g>
			<g>
				<path style="fill:#FDF2E4;" d="M1940.3,2432.505c0,0-3.201,1.05-8.6,3.3c-14.301,5.95-44.05,20.2-71.3,44.85
					c-0.1,0.15-0.25,0.25-0.4,0.35c-5.75,5.25-11.35,10.9-16.65,17.1c-5.599,6.45-10.9,13.4-15.699,20.95l-1.1,1.799
					c-0.95,1.5-1.851,3-2.7,4.551c-9.15,15.9-16,34.149-18.95,54.85c-22.7-5.25-44.5-11.7-65.35-19.2
					c-379.55-136.35-454.199-624.85-93.75-720l178.95-0.8l60-0.25l44.5,191.8l-144.65,86.85c0,0,36.1,135.25,111.851,253.5
					C1909.8,2393.104,1924.4,2413.504,1940.3,2432.505z"/>
			</g>
			<g>
				<path style="fill:#D1623C;" d="M1940.3,2432.505c0,0-120,40.15-135.4,147.75c-22.7-5.25-44.5-11.7-65.35-19.2
					c0,0,6.05-167.7,156.851-188.9c0,0,0,0,0.05,0C1909.8,2393.104,1924.4,2413.504,1940.3,2432.505z"/>
			</g>
			<g style="opacity:0.2;">
				<path style="fill:#00046A;" d="M2042.3,2666.305c0,0-20.699,42.6-69.3,16.6c0,0-25.75,20.049-47.1,0.499
					c0,0-105.499,6.801-121-103.149c-22.7-5.25-44.5-11.7-65.35-19.2c-379.55-136.35-454.199-624.85-93.75-720l178.95-0.8
					l-54.55,98.6c0,0-116.5-94.7-210.25-11.65c-93.7,83.05-110.25,404.55,192.55,569.95l71.35,28.251l2.7-4.551l1.1-1.799
					l24.9-42.05c-1.3,2.4-5.35,10.1-9.2,21.1c-0.499,1.4-1,2.85-1.5,4.4c-12.2,38.25-18.25,107.75,83.55,134.75
					c0,0,27.8,14.9,41.649-5.45c0,0,34.651,31.75,49.551-17.85c0,0,53.099,54.55,69.449,9.95c0.05-0.1,0.05-0.2,0.1-0.25
					c10.45,18.85,19.1,37.15,20.85,48.6C2111.5,2700.854,2075.4,2706.455,2042.3,2666.305z"/>
			</g>
			<g>
				<path style="fill:#00046A;" d="M1789.417,2117.368c5.054,13.601,10.33,27.31,15.852,40.815
					c5.369,13.577,11.145,26.985,16.97,40.344c5.852,13.345,11.816,26.624,18.032,39.763c2.996,6.624,6.272,13.11,9.453,19.631
					c3.245,6.492,6.184,13.127,9.487,19.575c12.371,26.221,25.789,51.907,40.889,76.536c15.017,24.688,31.909,48.025,49.915,70.325
					l0.022,0.027c4.441,5.498,3.582,13.555-1.917,17.993c-1.157,0.938-2.48,1.65-3.809,2.122l-0.017,0.007
					c-7.102,2.534-15.1,6.091-22.444,9.768c-7.449,3.75-14.734,7.854-21.78,12.302c-14.089,8.892-27.266,19.146-38.801,30.83
					c-5.813,5.801-11.172,11.995-16.006,18.525c-4.897,6.487-9.263,13.33-12.957,20.488c-7.634,14.214-12.393,29.731-14.844,45.623
					l-0.022,0.142c-1.067,6.917-7.537,11.658-14.453,10.591c-0.303-0.046-0.632-0.11-0.925-0.178
					c-86.704-20.071-169.661-59.788-237.327-118.489c-67.683-58.313-120.486-134.827-147.205-220.776
					c-13.303-42.883-20.103-88.069-18.271-133.306c1.973-45.129,12.488-90.415,33.247-131.099
					c20.63-40.659,51.016-76.482,87.834-103.215c36.704-26.99,78.875-45.391,122.239-56.921c6.763-1.797,13.706,2.229,15.503,8.992
					c1.799,6.765-2.227,13.706-8.989,15.503l-0.042,0.012c-40.857,10.867-79.998,28.054-113.691,52.83
					c-33.816,24.558-61.377,57.136-80.244,94.258c-18.96,37.141-28.687,78.772-30.532,120.688
					c-1.702,42.007,4.619,84.355,17.151,124.739c25.144,80.962,75.19,153.674,139.553,209.102
					c64.346,55.823,143.384,93.738,226.482,112.988l-15.398,10.557c2.839-18.704,8.552-37.144,17.495-53.823
					c4.346-8.403,9.441-16.377,15.085-23.87c5.591-7.542,11.733-14.624,18.313-21.199c13.088-13.247,27.759-24.626,43.279-34.426
					c7.764-4.902,15.757-9.404,23.953-13.528c8.33-4.131,16.333-7.781,25.728-11.135l0.042-0.015l-5.706,20.142
					c-18.928-23.403-36.519-47.769-52.061-73.308c-4.089-6.27-7.573-12.869-11.387-19.287c-3.787-6.433-7.607-12.852-11.047-19.458
					l-10.691-19.644l-9.907-20.022c-3.345-6.658-6.155-13.552-9.092-20.386c-2.981-6.819-5.713-13.738-8.335-20.693
					c-5.474-13.818-10.354-27.856-15.11-41.909c-9.15-28.267-17.361-56.682-23.176-85.947c-0.54-2.715,1.223-5.352,3.938-5.889
					c2.446-0.488,4.832,0.898,5.671,3.167L1789.417,2117.368z"/>
			</g>
			<g>
				<path style="fill:#00046A;" d="M1739.563,2573.722c-0.161,0-0.322-0.005-0.483-0.01c-6.987-0.261-12.441-6.125-12.192-13.115
					c0.063-1.782,8.296-178.577,167.729-201.016c6.953-0.999,13.345,3.853,14.316,10.784c0.977,6.929-3.853,13.34-10.781,14.314
					c-138.257,19.458-145.688,170.435-145.932,176.851C1751.951,2568.356,1746.335,2573.722,1739.563,2573.722z"/>
			</g>
			<g>
				<path style="fill:#00046A;" d="M2088.669,2707.822c-14.224,0-30.317-7.703-45.254-21.792
					c-5.532,5.801-13.394,11.929-23.843,15.315c-14.121,4.585-29.482,3.259-45.708-3.933c-12.998,7.136-33.974,12.363-52.456-1.321
					c-23.11-0.4-114.199-8.745-129.038-114.072c-0.977-6.931,3.848-13.34,10.781-14.316c6.963-1.013,13.34,3.85,14.316,10.781
					c13.623,96.692,103.828,92.48,107.661,92.258c3.423-0.188,6.826,0.991,9.355,3.318c12.827,11.782,29.004,0.154,30.811-1.213
					c3.945-2.988,9.341-3.45,13.706-1.123c12.349,6.619,23.291,8.496,32.529,5.583c12.93-4.072,19.36-16.523,19.424-16.648
					c1.934-3.818,5.688-6.45,9.937-6.921c4.258-0.481,8.481,1.184,11.201,4.487c18.95,22.996,35.464,25.789,40.474,23.518
					c2.407-1.079,2.383-4.705,1.938-7.556c-3.73-23.931-46.665-91.111-60.84-110.007c-9.224-12.3-7.139-25.049-1.479-34.634
					c-39.126-34.209-107.129-82.898-107.866-83.425c-5.693-4.07-7.012-11.985-2.939-17.681c4.072-5.696,11.997-7.002,17.676-2.939
					c3.315,2.368,81.602,58.42,119.331,93.533c2.715,2.527,4.189,6.116,4.028,9.819c-0.156,3.706-1.934,7.153-4.854,9.438
					c-2.095,1.719-6.855,6.365-3.623,10.681c7.349,9.792,60.273,87.078,65.605,121.313c2.441,15.64-3.921,28.889-16.602,34.583
					C2098.513,2706.857,2093.708,2707.822,2088.669,2707.822z"/>
			</g>
			<g>
				<path style="fill:#00046A;" d="M2031.582,2673.025l-11.726-33.088c-0.945-2.668,0.452-5.598,3.12-6.543
					c1.929-0.684,3.997-0.137,5.349,1.223l24.719,24.927c5.051,5.093,5.017,13.315-0.076,18.364
					c-5.093,5.051-13.315,5.017-18.367-0.076C2033.223,2676.44,2032.205,2674.756,2031.582,2673.025z"/>
			</g>
		</g>
		<g>
			<path style="fill:#D1623C;" d="M2000,2090.333c0,0,42.438,162.645,93.017,182.479c50.578,19.835,123.135-204.008,123.135-204.008
				l-61.648-77.645l-90.248-29.752l-37.686,61.521"/>
		</g>
		<g>
			<path style="fill:#00046A;" d="M2099.573,2286.718c-4.487,0-8.276-0.967-11.187-2.109
				c-54.995-21.565-96.143-173.789-100.649-191.074c-1.767-6.772,2.29-13.694,9.058-15.461c6.772-1.772,13.696,2.288,15.464,9.06
				c15.796,60.476,52.944,161.16,85.386,173.879c0.732,0.291,2.476,0.984,6.26-0.811c30.728-14.534,75.4-120.828,98.076-188.867
				l-55.044-69.326l-77.114-25.422l-32.446,52.961c-3.652,5.977-11.465,7.844-17.427,4.187c-5.967-3.655-7.842-11.458-4.185-17.424
				l37.686-61.521c3.076-5.02,9.194-7.258,14.775-5.417l90.249,29.751c2.349,0.774,4.419,2.219,5.957,4.155l61.646,77.647
				c2.637,3.325,3.438,7.751,2.129,11.79c-6.143,18.945-61.499,185.823-113.467,210.4
				C2109.124,2285.771,2104.006,2286.718,2099.573,2286.718z"/>
		</g>
		<g>
			<path style="fill:#D1623C;" d="M2147.4,2118.655l-8.3-33.9l-23.7-96.65l56.649-60.9h144.601
				C2324.6,2081.405,2147.4,2118.655,2147.4,2118.655z"/>
		</g>
		<g style="opacity:0.2;">
			<path style="fill:#00046A;" d="M2147.4,2118.655l-8.3-33.9c185.549-70.25,86.799-130.3,86.799-130.3l26.3-27.25h64.451
				C2324.6,2081.405,2147.4,2118.655,2147.4,2118.655z"/>
		</g>
		<g>
			<path style="fill:#00046A;" d="M2147.366,2131.335c-5.718,0-10.884-3.892-12.3-9.661l-31.982-130.537
				c-1.016-4.143,0.122-8.518,3.027-11.643l56.631-60.928c2.397-2.581,5.762-4.045,9.282-4.045h144.629
				c6.748,0,12.31,5.286,12.656,12.021c8.394,163.152-177.446,204.124-179.326,204.519
				C2149.104,2131.244,2148.23,2131.335,2147.366,2131.335z M2129.329,1991.745l27.305,111.443
				c36.919-10.718,145.82-51.782,147.583-163.32h-126.67L2129.329,1991.745z"/>
		</g>
		<g>
			<path style="fill:#D1623C;" d="M2068.25,2098.504c-5.5,18-9.4,30.75-9.4,30.75c-312.4-30.099-302-250.3-302-250.3
				s47.85,14.15,107.85,32c100.701,29.9,235.751,70.1,236.901,71.05C2102.9,1983.004,2081.15,2055.655,2068.25,2098.504z"/>
		</g>
		<g style="opacity:0.2;">
			<path style="fill:#00046A;" d="M2068.25,2098.504c-5.5,18-9.4,30.75-9.4,30.75c-312.4-30.099-302-250.3-302-250.3
				s47.85,14.15,107.85,32l15.651,16.25c0,0-61.75,70.75,86.25,141.6C2012.4,2090.705,2045.05,2098.354,2068.25,2098.504z"/>
		</g>
		<g>
			<path style="fill:#00046A;" d="M2062.781,2141.933c-0.405,0-0.815-0.02-1.226-0.059c-166.538-16.06-242.935-86.292-277.7-142.38
				c-38.081-61.445-35.845-118.716-35.732-121.123c0.186-3.889,2.148-7.478,5.322-9.732c3.174-2.258,7.207-2.927,10.938-1.821
				c345.273,102.234,346.46,103.186,349.067,105.268c7.832,6.274,7.832,6.274-16.455,87.715
				c-10.938,36.677-22.104,73.167-22.104,73.167C2073.245,2138.334,2068.298,2141.933,2062.781,2141.933z M1774.314,1896.193
				c2.104,19.863,9.077,54.941,31.812,91.108c44.443,70.718,129.917,114.951,247.578,128.267
				c13.047-42.791,30.688-101.643,36.987-125.034C2049.016,1977.736,1891.233,1930.829,1774.314,1896.193z"/>
		</g>
		<g>
			
				<ellipse transform="matrix(0.1881 -0.9821 0.9821 0.1881 200.0736 1860.1827)" style="fill:#9DA9B9;" cx="1225.217" cy="809.072" rx="325.481" ry="274.216"/>
		</g>
		<g style="opacity:0.75;">
			<path style="fill:#FFFFFF;" d="M1494.553,860.677c-18.756,97.683-72.388,178.029-141.785,225.527
				c51.554-48.208,90.282-116.54,105.591-196.43c33.811-176.559-59.359-342.776-208.089-371.265
				c-66.457-12.724-132.761,4.208-188.775,42.53c62.351-58.346,143.559-87.24,224.969-71.627
				C1435.193,517.901,1528.364,684.118,1494.553,860.677z"/>
		</g>
		<g style="opacity:0.2;">
			<path style="fill:#00046A;" d="M1462.11,957.752c-59.765,121.001-178.688,193.844-298.117,170.983
				c-148.78-28.489-241.9-194.706-208.089-371.265c14.599-76.291,50.54-141.987,98.646-189.738
				c-14.701,29.654-25.802,62.3-32.443,97.074c-33.811,176.559,59.309,342.776,208.089,371.265
				C1314.648,1052.241,1398.898,1020.508,1462.11,957.752z"/>
		</g>
		<g>
			<path style="fill:#00046A;" d="M1208.318,1145.631c-15.581,0-31.191-1.47-46.724-4.446
				c-155.366-29.763-253.223-202.961-218.145-386.091c35.083-183.122,190.02-307.891,345.386-278.137
				c75.674,14.495,140.015,62.922,181.177,136.36c40.757,72.725,53.887,161.416,36.968,249.734
				c-16.919,88.315-61.895,165.874-126.646,218.386C1328.367,1123.578,1268.63,1145.631,1208.318,1145.631z M1242.551,497.905
				c-126.826,0-244.932,109.141-274.209,261.96c-32.451,169.402,56.382,329.294,198.018,356.428
				c68.223,13.066,138.53-6.309,198.008-54.543c60.117-48.752,101.924-121.013,117.72-203.469l0,0
				c15.796-82.456,3.657-165.051-34.184-232.571c-37.446-66.807-95.63-110.794-163.833-123.86
				C1270.203,499.194,1256.316,497.905,1242.551,497.905z"/>
		</g>
		<g>
			<path style="fill:#9DA9B9;" d="M2744.354,1184.748c-16.576,77.102-45.623,148.881-86.936,208.799l-109.088,8.973l-672.272,55.254
				l-561.207,46.129c-157.195-302.984-131.747-585.944-4.157-798.798c0.051,0,0.051,0,0.051,0
				c211.333-352.408,702.89-512.542,1109.385-252.697C2699.796,551.763,2804.93,903.359,2744.354,1184.748z"/>
		</g>
		<g style="opacity:0.2;">
			<path style="fill:#00046A;" d="M2744.354,1184.748c-16.576,77.102-45.623,148.881-86.936,208.799l-109.088,8.973
				c-52.212-18.655-89.826-40.706-108.074-119.632c-31.682-137.222-47.549-221.674-51.3-242.052l-63.365-240.532
				c0,0,219.444,87.443,292.592,248.845C2681.141,1187.993,2695.74,1225.758,2744.354,1184.748z"/>
		</g>
		<g style="opacity:0.2;">
			<path style="fill:#00046A;" d="M1876.057,1457.773l-561.207,46.129c-157.195-302.984-131.747-585.944-4.157-798.798
				c0.051,0,0.051,0,0.051,0c-241.444,683.373,221.269,798.696,413.998,414.657l100.167-17.742
				C1824.91,1102.02,1880.62,1301.339,1876.057,1457.773z"/>
		</g>
		<g style="opacity:0.75;">
			<path style="fill:#FFFFFF;" d="M2678.606,1359.837c128.301-290.919,37.968-741.111-284.633-855.724
				c-13.383-8.567-26.866-16.678-40.452-24.281c-124.347,32.24-225.375-6.235-281.845-96.415
				c-325.592-45.876-646.318,119.48-799.254,394.431c183.96-402.035,714.194-602.571,1147.708-325.44
				C2762.552,574.067,2843.303,1073.835,2678.606,1359.837z"/>
		</g>
		<g>
			<ellipse style="fill:#FCD5B4;" cx="2645.336" cy="1551.446" rx="69.376" ry="91.662"/>
		</g>
		<g>
			<path style="fill:#00046A;" d="M2645.334,1655.783c-45.239,0-82.046-46.804-82.046-104.336
				c0-57.532,36.807-104.336,82.046-104.336s82.046,46.804,82.046,104.336C2727.38,1608.979,2690.574,1655.783,2645.334,1655.783z
				 M2645.334,1472.458c-31.265,0-56.704,35.435-56.704,78.989c0,43.555,25.439,78.989,56.704,78.989s56.704-35.435,56.704-78.989
				C2702.039,1507.892,2676.599,1472.458,2645.334,1472.458z"/>
		</g>
		<g>
			<path style="fill:#FCD5B4;" d="M1487.028,1686.069c11.294,16.25,23.112,31.691,35.456,46.273
				c6.005,7.196,12.2,14.201,18.538,21.016c0.143,0.095,0.191,0.19,0.286,0.286c16.013,17.251,32.834,33.168,50.42,47.798
				c6.814,5.671,13.724,11.152,20.729,16.441c1.621,1.239,3.241,2.431,4.861,3.574c2.24,1.716,4.527,3.384,6.862,5.004
				c3.432,2.43,6.863,4.861,10.342,7.148c3.717,2.526,7.482,5.004,11.294,7.434c7.578,4.861,15.297,9.484,23.161,13.963
				c3.383,1.906,6.767,3.813,10.198,5.623c4.909,2.669,9.865,5.242,14.869,7.768c7.672,3.813,15.44,7.482,23.351,10.961
				c4.147,1.811,8.34,3.622,12.534,5.338c2.763,1.144,5.575,2.287,8.387,3.383c14.202,5.623,28.736,10.675,43.557,15.155
				c3.336,1.001,6.624,1.954,9.96,2.907c5.719,1.668,11.485,3.193,17.298,4.67c3.146,0.81,6.291,1.573,9.484,2.287
				c5.957,1.477,11.962,2.812,18.014,4.051c4.051,0.858,8.149,1.668,12.248,2.383c0.619,0.143,1.239,0.286,1.858,0.381
				c1.144,1.382,2.335,2.812,3.574,4.242c23.875,27.545,62.477,57.044,122.237,67.433c111.514,19.3,206.349,3.193,248.762-52.898
				l67.147,3.288c227.222-39.125,344.931-154.07,361.754-293.844c6.862-56.567-2.812-117.233-28.45-178.613
				c29.355-70.721,43.7-150.782,31.643-242.996c-76.916-207.063-195.865-351.651-355.177-436.049
				c-7.863,11.342-15.964,22.398-24.351,33.121c-121.284,155.786-293.798,244.569-499.765,289.603
				c-8.101,197.533-147.923,288.269-340.07,336.687c-6.243,1.62-12.534,3.098-18.873,4.575
				c-50.134,4.241-84.159,23.446-104.318,49.419c0,0,0,0-0.048,0C1246.7,1591.235,1334.197,1755.456,1487.028,1686.069z"/>
		</g>
		<g>
			<g>
				<g>
					<ellipse style="fill:#00046A;" cx="1997.409" cy="1399.866" rx="84.815" ry="114.258"/>
				</g>
				<g>
					
						<ellipse transform="matrix(0.4149 -0.9099 0.9099 0.4149 -64.1167 2583.8938)" style="fill:#FFFFFF;" cx="1976.969" cy="1341.799" rx="35.772" ry="25.206"/>
				</g>
				<g style="opacity:0.5;">
					
						<ellipse transform="matrix(0.3013 -0.9535 0.9535 0.3013 19.3789 2955.1885)" style="fill:#FFFFFF;" cx="2026.272" cy="1464.37" rx="21.358" ry="15.373"/>
				</g>
			</g>
			<g>
				<path style="fill:#00046A;" d="M2028.457,1295.427c7.048,0.549,14.583-0.713,21.56-4.231
					c6.958-3.491,13.311-9.241,17.498-16.882l0.107-0.193c1.382-2.522,4.546-3.447,7.068-2.065c1.895,1.04,2.886,3.091,2.676,5.115
					c-1.133,10.696-5.796,21.453-13.298,30.359c-7.471,8.938-17.783,16.001-29.448,20.149l-1.797,0.64
					c-8.826,3.137-18.523-1.472-21.663-10.298c-3.137-8.826,1.475-18.525,10.3-21.663
					C2023.748,1295.544,2026.179,1295.261,2028.457,1295.427z"/>
			</g>
			<g>
				<path style="fill:#00046A;" d="M2048.906,1325.674c7.048,0.547,14.585-0.713,21.563-4.233
					c6.958-3.489,13.311-9.241,17.498-16.882l0.105-0.193c1.382-2.522,4.546-3.445,7.068-2.065c1.897,1.04,2.888,3.091,2.676,5.115
					c-1.13,10.696-5.793,21.455-13.296,30.359c-7.473,8.94-17.783,16.003-29.448,20.151l-1.797,0.637
					c-8.826,3.14-18.525-1.472-21.663-10.298s1.472-18.523,10.298-21.663C2044.199,1325.789,2046.631,1325.508,2048.906,1325.674z"
					/>
			</g>
		</g>
		<g>
			<g>
				<g>
					<ellipse style="fill:#00046A;" cx="2468.555" cy="1404.799" rx="84.815" ry="114.258"/>
				</g>
				<g>
					
						<ellipse transform="matrix(0.4149 -0.9099 0.9099 0.4149 207.062 3015.4546)" style="fill:#FFFFFF;" cx="2448.116" cy="1346.732" rx="35.772" ry="25.206"/>
				</g>
				<g style="opacity:0.5;">
					
						<ellipse transform="matrix(0.3013 -0.9535 0.9535 0.3013 343.8592 3407.894)" style="fill:#FFFFFF;" cx="2497.419" cy="1469.303" rx="21.358" ry="15.373"/>
				</g>
			</g>
			<g>
				<path style="fill:#00046A;" d="M2499.604,1300.36c7.048,0.549,14.583-0.713,21.56-4.231c6.958-3.491,13.311-9.241,17.498-16.882
					l0.107-0.193c1.382-2.522,4.546-3.447,7.068-2.065c1.895,1.04,2.886,3.091,2.676,5.115
					c-1.133,10.696-5.796,21.453-13.298,30.359c-7.471,8.938-17.783,16.001-29.448,20.149l-1.797,0.64
					c-8.826,3.137-18.523-1.472-21.663-10.298c-3.137-8.826,1.475-18.525,10.3-21.663
					C2494.894,1300.478,2497.326,1300.194,2499.604,1300.36z"/>
			</g>
			<g>
				<path style="fill:#00046A;" d="M2520.053,1330.607c7.048,0.547,14.585-0.713,21.563-4.233
					c6.958-3.489,13.311-9.241,17.498-16.882l0.105-0.193c1.382-2.522,4.546-3.445,7.068-2.066c1.897,1.04,2.888,3.091,2.676,5.115
					c-1.13,10.696-5.793,21.455-13.296,30.359c-7.473,8.94-17.783,16.003-29.448,20.151l-1.797,0.637
					c-8.826,3.14-18.525-1.472-21.663-10.298c-3.137-8.826,1.472-18.523,10.298-21.663
					C2515.346,1330.722,2517.777,1330.441,2520.053,1330.607z"/>
			</g>
		</g>
		<g style="opacity:0.2;">
			<path style="fill:#00046A;" d="M2277.889,823.622c0,0-76.95,253.052-452.98,336.542c0,0-35.089,257.719-312.615,312.767
				c-35.235,6.989-59.715-6.286-74.263-23.065c192.172-48.41,331.979-139.148,340.09-336.643
				C1984.081,1068.158,2156.584,979.397,2277.889,823.622z"/>
		</g>
		<g style="opacity:0.2;">
			<path style="fill:#00046A;" d="M1487.028,1686.069c11.294,16.25,23.112,31.691,35.456,46.273
				c6.052,7.196,12.247,14.201,18.538,21.016c0.143,0.095,0.191,0.19,0.286,0.286c16.059,17.204,32.834,33.12,50.42,47.798
				c6.814,5.671,13.724,11.152,20.729,16.441c1.621,1.239,3.241,2.431,4.861,3.574c2.24,1.716,4.527,3.384,6.862,5.004
				c3.432,2.43,6.863,4.861,10.342,7.148c3.717,2.526,7.482,5.004,11.294,7.434c7.625,4.861,15.297,9.531,23.161,13.963
				c3.383,1.906,6.767,3.813,10.198,5.623c4.909,2.669,9.865,5.242,14.869,7.768c7.672,3.86,15.44,7.482,23.351,10.961
				c4.147,1.811,8.34,3.622,12.534,5.338c2.763,1.144,5.575,2.287,8.387,3.383c14.202,5.623,28.736,10.675,43.557,15.155
				c3.336,1.001,6.624,1.954,9.96,2.907c5.719,1.668,11.485,3.193,17.298,4.67c3.146,0.81,6.291,1.573,9.484,2.287
				c5.957,1.477,11.962,2.812,18.014,4.051c4.051,0.858,8.149,1.668,12.248,2.383c0.619,0.143,1.239,0.286,1.858,0.381
				c0.763,0.143,1.525,0.286,2.287,0.429c0.429,1.287,0.858,2.573,1.287,3.812c23.875,27.545,62.477,57.044,122.237,67.433
				c111.514,19.3,205.852,9.139,248.266-46.952l67.643-2.658c227.222-39.125,344.931-154.07,361.754-293.844l-6.624-4.003
				c-88.116,332.112-822.679,311.43-1149.977-54.47l-17.586,20.016c-53.945,91.689-201.63,31.214-165.174-105.796c0,0,0,0-0.048,0
				C1246.7,1591.235,1334.197,1755.456,1487.028,1686.069z"/>
		</g>
		<g>
			<path style="fill:#9DA9B9;" d="M1419.186,1454.456c-4.355,55.482,7.722,101.729,35.11,139.373
				c11.2,15.394,35.141,13.056,43.321-4.134c21.233-44.623,23.555-97.213,5.176-158.521L1419.186,1454.456z"/>
		</g>
		<g>
			<path style="fill:#00046A;" d="M2067.913,1527.671c-25.017-0.168-49.78-0.413-74.844-0.374l-18.799-0.071
				c-6.277-0.178-12.554-0.083-18.848-0.295c-12.615-0.31-25.105-0.378-37.847-1.67l-0.415-0.042
				c-4.216-0.427-7.288-4.192-6.86-8.408c0.337-3.333,2.771-5.95,5.852-6.692c12.649-3.018,25.525-5.217,38.35-6.382
				c6.423-0.715,12.866-0.989,19.312-1.399c6.45-0.193,12.908-0.376,19.373-0.347c12.908,0.183,25.923,0.747,38.857,2.446
				c12.908,1.628,25.852,4.021,38.428,8.24c4.028,1.353,6.199,5.715,4.846,9.746c-1.084,3.23-4.104,5.266-7.334,5.249
				L2067.913,1527.671z"/>
		</g>
		<g>
			<path style="fill:#00046A;" d="M2538.567,1522.207c-10.52,2.893-21.238,4.819-32.002,6.411
				c-10.742,1.699-21.514,2.214-32.31,2.625c-5.396,0.129-10.789,0.083-16.177,0.054c-5.388-0.244-10.771-0.325-16.15-0.815
				c-10.742-0.74-21.57-2.324-32.219-4.688c-4.16-0.923-6.785-5.044-5.862-9.204c0.693-3.12,3.186-5.378,6.145-5.92l0.381-0.068
				c10.654-1.941,21.121-2.605,31.685-3.333c5.276-0.432,10.544-0.525,15.808-0.862l15.781-0.461
				c10.496-0.198,21.038-0.222,31.531-0.283c10.481-0.068,21.003,0.198,31.724,1.431l0.505,0.056
				c4.219,0.486,7.249,4.302,6.763,8.521C2543.801,1518.879,2541.501,1521.396,2538.567,1522.207z"/>
		</g>
		<g>
			<path style="fill:#D1CAC7;" d="M1775.841,1291.949h49.045v-59.573h-49.045c-16.226,0-29.38,13.154-29.38,29.38v0.813
				C1746.461,1278.796,1759.615,1291.949,1775.841,1291.949z"/>
		</g>
		<g>
			<path style="fill:#D1CAC7;" d="M2657.401,1232.376h28.027c16.173,0,29.284,13.111,29.284,29.284l0,0
				c0,16.173-13.111,29.284-29.284,29.284h-25.513L2657.401,1232.376z"/>
		</g>
		<g>
			<path style="fill:#00046A;" d="M2128.274,1581.374h-258.389c-31.802,0-57.671-25.872-57.671-57.673v-291.323
				c0-7,5.674-12.673,12.671-12.673h303.389c31.802,0,57.671,25.872,57.671,57.673V1523.7
				C2185.945,1555.502,2160.076,1581.374,2128.274,1581.374z M1837.556,1245.051v278.65c0,17.825,14.502,32.327,32.329,32.327
				h258.389c17.827,0,32.329-14.502,32.329-32.327v-246.323c0-17.825-14.502-32.327-32.329-32.327H1837.556z"/>
		</g>
		<g>
			<path style="fill:#00046A;" d="M2613.284,1581.374h-217.065c-31.938,0-57.92-25.986-57.92-57.925v-245.823
				c0-31.938,25.981-57.922,57.92-57.922H2657.4c6.846,0,12.456,5.439,12.666,12.285c2.91,94.895,3.296,193.333,1.138,292.573
				C2670.52,1555.888,2644.539,1581.374,2613.284,1581.374z M2396.218,1245.051c-17.964,0-32.578,14.614-32.578,32.576v245.823
				c0,17.964,14.614,32.578,32.578,32.578h217.065c17.876,0,32.188-14.063,32.578-32.017c2.056-94.524,1.797-188.306-0.767-278.96
				H2396.218z"/>
		</g>
		<g>
			<path style="fill:#00046A;" d="M1824.885,1304.623h-49.043c-23.188,0-42.051-18.865-42.051-42.053v-0.813
				c0-23.188,18.862-42.053,42.051-42.053h49.043c6.997,0,12.671,5.674,12.671,12.673v59.573
				C1837.556,1298.949,1831.882,1304.623,1824.885,1304.623z M1775.842,1245.051c-9.214,0-16.709,7.495-16.709,16.706v0.813
				c0,9.211,7.495,16.707,16.709,16.707h36.372v-34.226H1775.842z"/>
		</g>
		<g>
			<path style="fill:#00046A;" d="M2685.427,1303.617h-25.513c-6.997,0-12.671-5.674-12.671-12.673s5.674-12.673,12.671-12.673
				h25.513c9.16,0,16.611-7.451,16.611-16.611c0-9.158-7.451-16.609-16.611-16.609H2657.4c-6.997,0-12.671-5.674-12.671-12.673
				s5.674-12.673,12.671-12.673h28.027c23.135,0,41.953,18.821,41.953,41.956C2727.38,1284.794,2708.562,1303.617,2685.427,1303.617
				z"/>
		</g>
		<g>
			<path style="fill:#00046A;" d="M2173.284,1401.149c-4.253,0-8.408-2.141-10.801-6.03c-3.672-5.959-1.816-13.767,4.146-17.437
				c62.451-38.462,143.301-38.096,192.236,0.879c5.474,4.36,6.377,12.332,2.017,17.808c-4.351,5.474-12.319,6.384-17.808,2.017
				c-40.205-32.021-110.352-31.648-163.154,0.879C2177.849,1400.539,2175.554,1401.149,2173.284,1401.149z"/>
		</g>
		<g>
			<path style="fill:#00046A;" d="M1925.618,1192.581c10.698-11.46,23.24-21.501,37.461-29.407
				c14.146-7.976,30.293-13.457,47.136-15.046c8.406-0.708,16.921-0.603,25.251,0.552c4.155,0.679,8.325,1.262,12.322,2.48
				c4.045,1.033,8.083,2.08,11.873,3.745c15.491,5.803,29.314,14.614,41.035,25.227c3.137,2.842,3.379,7.688,0.537,10.828
				c-2.339,2.583-6.04,3.203-9.026,1.755l-0.186-0.093c-13.213-6.418-26.243-12.097-39.514-15.637
				c-13.257-3.499-26.641-4.907-39.919-3.665c-13.303,1.064-26.453,4.949-39.307,10.469c-12.866,5.547-25.349,12.798-37.981,20.515
				l-0.081,0.051c-3.613,2.207-8.333,1.067-10.542-2.546C1922.842,1198.806,1923.328,1195.034,1925.618,1192.581z"/>
		</g>
		<g>
			<path style="fill:#00046A;" d="M2414.834,1201.516c7.93-10.415,18.003-19.629,30.11-26.499
				c12.009-6.953,26.409-11.089,40.891-10.94c7.209,0.115,14.395,1.055,21.204,2.883c3.406,0.962,6.785,1.951,9.961,3.347
				l4.824,1.943c1.584,0.688,3.047,1.58,4.565,2.363c12.119,6.343,22.568,14.763,31.24,24.463c2.834,3.171,2.563,8.037-0.608,10.872
				c-2.485,2.222-6.013,2.534-8.787,1.038l-0.198-0.107c-10.613-5.752-20.867-11.201-31.257-15.137
				c-10.388-3.882-20.793-6.289-31.079-6.362c-10.303-0.278-20.493,2.122-30.547,6.248c-10.061,4.163-19.819,10.19-29.761,16.833
				l-0.164,0.11c-3.533,2.361-8.308,1.411-10.669-2.122C2412.688,1207.649,2412.908,1204.058,2414.834,1201.516z"/>
		</g>
		<g>
			<path style="fill:#00046A;" d="M1750.432,1401.077c7.476-0.181,14.424,1.367,21.248,3.325c3.391,1.045,6.741,2.219,9.995,3.711
				c3.267,1.458,6.462,3.137,9.48,5.408c2.141,1.611,2.571,4.653,0.959,6.797c-0.894,1.187-2.251,1.851-3.625,1.929
				c-3.772,0.195-7.361-0.198-10.884-0.815c-3.53-0.583-6.968-1.482-10.364-2.51c-6.75-2.19-13.376-4.79-19.475-9.119
				c-2.166-1.536-2.673-4.536-1.138-6.702C1747.537,1401.824,1748.979,1401.121,1750.432,1401.077z"/>
		</g>
		<g>
			<path style="fill:#00046A;" d="M1749.985,1442.439c6.807-1.055,13.259-0.339,19.631,0.801c3.171,0.637,6.316,1.406,9.397,2.5
				c3.088,1.06,6.13,2.349,9.055,4.241c2.275,1.475,2.925,4.517,1.45,6.792c-0.759,1.174-1.951,1.917-3.223,2.158
				c-3.425,0.637-6.729,0.667-9.988,0.471c-3.267-0.164-6.467-0.649-9.641-1.27c-6.326-1.375-12.563-3.174-18.455-6.743
				c-2.292-1.389-3.025-4.375-1.636-6.667C1747.346,1443.452,1748.628,1442.656,1749.985,1442.439z"/>
		</g>
		<g>
			<path style="fill:#00046A;" d="M2554.744,1419.451c4.297-2.542,8.674-3.281,13.066-3.591c2.2-0.085,4.407-0.034,6.626,0.344
				c2.219,0.347,4.446,0.923,6.702,2.117c2.581,1.367,3.564,4.565,2.197,7.146c-0.435,0.823-1.079,1.497-1.807,1.97
				c-2.146,1.382-4.316,2.148-6.497,2.681c-2.178,0.569-4.373,0.808-6.57,0.911c-4.404,0.068-8.828-0.295-13.328-2.461
				c-2.576-1.238-3.657-4.331-2.419-6.907C2553.176,1420.703,2553.892,1419.954,2554.744,1419.451z"/>
		</g>
		<g>
			<path style="fill:#00046A;" d="M2558.518,1444.16c4.299-2.542,8.674-3.281,13.066-3.591c2.202-0.085,4.407-0.034,6.626,0.344
				c2.219,0.347,4.446,0.923,6.702,2.117c2.581,1.367,3.564,4.565,2.197,7.146c-0.435,0.825-1.077,1.497-1.807,1.97
				c-2.144,1.382-4.314,2.148-6.497,2.681c-2.178,0.569-4.373,0.808-6.57,0.911c-4.404,0.068-8.828-0.295-13.328-2.461
				c-2.573-1.238-3.657-4.331-2.417-6.907C2556.953,1445.413,2557.666,1444.663,2558.518,1444.16z"/>
		</g>
		<g>
			<path style="fill:#00046A;" d="M2074.695,2012.897c-80.532,0-175.122-25.52-228.066-80.835
				c-152.29-28.557-274.688-106.001-364.019-230.308c-59.199,23.608-115.845,16.284-156.675-20.637
				c-40.928-37.004-57.544-98.323-40.405-149.114c17.349-51.418,65.313-84.221,131.655-90.095
				c233.755-54.907,341.191-156.465,348.286-329.199c0.234-5.757,4.326-10.63,9.951-11.86
				c235.337-51.472,404.248-155.354,516.377-317.576c3.647-5.281,10.669-7.009,16.357-3.992
				c162.427,86.055,283.926,235.046,361.123,442.837c0.332,0.896,0.562,1.824,0.684,2.769
				c11.245,85.901,1.255,165.989-30.532,244.644c41.724,103.057,39.648,201.372-6.074,284.631
				c-56.318,102.544-173.467,171.807-338.784,200.3c-0.298,0.051-0.596,0.093-0.898,0.122l-71.86,7.158
				c-18.11,25.806-56.089,43.11-108.022,49.018C2101.331,2012.179,2088.21,2012.897,2074.695,2012.897z M1487.048,1673.415
				c4.048,0,7.979,1.941,10.41,5.442c86.646,124.67,207.036,201.729,357.837,229.031c2.744,0.498,5.244,1.882,7.119,3.943
				c54.619,60.049,168.799,82.815,248.511,73.747c46.733-5.315,80.425-20.64,92.441-42.039c2.021-3.606,5.679-5.996,9.795-6.406
				l77.549-7.725c157.212-27.18,268.008-91.992,320.43-187.446c42.603-77.571,43.604-170.083,2.896-267.539
				c-1.304-3.12-1.304-6.631-0.005-9.751c31.431-75.569,41.567-152.476,30.986-235.076
				c-73.408-196.841-187.397-338.965-338.901-422.605c-114.375,160.256-283.311,263.909-515.835,316.518
				c-14.98,233.699-216.758,307.837-368.203,343.284c-0.601,0.142-1.211,0.237-1.826,0.288
				c-57.129,4.827-96.445,30.762-110.708,73.027c-14.004,41.514-0.278,91.767,33.389,122.209
				c20.693,18.711,66.24,45.181,138.887,12.229C1483.503,1673.781,1485.286,1673.415,1487.048,1673.415z"/>
		</g>
		<g>
			<path style="fill:#00046A;" d="M1474.524,1616.776c-12.104,0-23.301-5.63-30.479-15.491
				c-29.404-40.417-42.021-90.154-37.49-147.822c0.542-6.978,6.641-12.188,13.623-11.643c6.977,0.547,12.192,6.648,11.641,13.625
				c-4.038,51.479,6.968,95.53,32.725,130.928c3.716,5.11,9.131,5.183,11.284,4.998c2.188-0.205,7.573-1.304,10.342-7.122
				c20.063-42.156,21.572-92.434,4.482-149.436c-2.012-6.707,1.797-13.77,8.501-15.779c6.689-2.014,13.769,1.792,15.776,8.499
				c18.95,63.21,16.973,119.602-5.869,167.607c-5.801,12.185-17.349,20.21-30.894,21.467
				C1476.946,1616.72,1475.73,1616.776,1474.524,1616.776z"/>
		</g>
		<defs>
			<filter id="Adobe_OpacityMaskFilter" filterUnits="userSpaceOnUse" x="1941.641" y="1262.162" width="194.938" height="205.614">
				<feFlood  style="flood-color:white;flood-opacity:1" result="back"/>
				<feBlend  in="SourceGraphic" in2="back" mode="normal"/>
			</filter>
		</defs>
		<mask maskUnits="userSpaceOnUse" x="1941.641" y="1262.162" width="194.938" height="205.614" id="SVGID_1_">
			<g style="filter:url(#Adobe_OpacityMaskFilter);">
				<defs>
					
						<filter id="Adobe_OpacityMaskFilter_00000176759438558516395120000015687767549018961544_" filterUnits="userSpaceOnUse" x="1941.641" y="1262.162" width="194.938" height="205.614">
						<feFlood  style="flood-color:white;flood-opacity:1" result="back"/>
						<feBlend  in="SourceGraphic" in2="back" mode="normal"/>
					</filter>
				</defs>
				<mask maskUnits="userSpaceOnUse" x="1941.641" y="1262.162" width="194.938" height="205.614" id="SVGID_1_">
					<g style="filter:url(#Adobe_OpacityMaskFilter_00000176759438558516395120000015687767549018961544_);">
					</g>
				</mask>
				
					<linearGradient id="SVGID_00000057864329854185124540000012816670041710588293_" gradientUnits="userSpaceOnUse" x1="2755.7217" y1="1214.7042" x2="2585.4204" y2="1393.9167" gradientTransform="matrix(1 0 0 1 -572.7469 0)">
					<stop  offset="0" style="stop-color:#FFFFFF"/>
					<stop  offset="1" style="stop-color:#000000"/>
				</linearGradient>
				<path style="mask:url(#SVGID_1_);fill:url(#SVGID_00000057864329854185124540000012816670041710588293_);" d="
					M1971.584,1262.162l134.881,0c16.385,0,29.711,13.158,29.88,29.542c0.385,37.365,0.224,101.935,0.015,150.344
					c-0.1,23.153-28.278,34.448-44.358,17.79c-40.39-41.842-100.106-103.732-141.932-147.084
					C1931.771,1293.788,1945.23,1262.162,1971.584,1262.162z"/>
			</g>
		</mask>
		
			<linearGradient id="SVGID_00000083089419999387317390000004062217829382734499_" gradientUnits="userSpaceOnUse" x1="2755.7217" y1="1214.7042" x2="2585.4204" y2="1393.9167" gradientTransform="matrix(1 0 0 1 -572.7469 0)">
			<stop  offset="0" style="stop-color:#FFFFFF"/>
			<stop  offset="1" style="stop-color:#FFFFFF"/>
		</linearGradient>
		<path style="fill:url(#SVGID_00000083089419999387317390000004062217829382734499_);" d="M1971.584,1262.162l134.881,0
			c16.385,0,29.711,13.158,29.88,29.542c0.385,37.365,0.224,101.935,0.015,150.344c-0.1,23.153-28.278,34.448-44.358,17.79
			c-40.39-41.842-100.106-103.732-141.932-147.084C1931.771,1293.788,1945.23,1262.162,1971.584,1262.162z"/>
		<defs>
			
				<filter id="Adobe_OpacityMaskFilter_00000132089209406617176750000005773516191675275679_" filterUnits="userSpaceOnUse" x="2440.265" y="1262.162" width="194.938" height="205.614">
				<feFlood  style="flood-color:white;flood-opacity:1" result="back"/>
				<feBlend  in="SourceGraphic" in2="back" mode="normal"/>
			</filter>
		</defs>
		
			<mask maskUnits="userSpaceOnUse" x="2440.265" y="1262.162" width="194.938" height="205.614" id="SVGID_00000092453675924102795990000016077946571314720674_">
			<g style="filter:url(#Adobe_OpacityMaskFilter_00000132089209406617176750000005773516191675275679_);">
				<defs>
					
						<filter id="Adobe_OpacityMaskFilter_00000183948862137691292680000009650135521451305896_" filterUnits="userSpaceOnUse" x="2440.265" y="1262.162" width="194.938" height="205.614">
						<feFlood  style="flood-color:white;flood-opacity:1" result="back"/>
						<feBlend  in="SourceGraphic" in2="back" mode="normal"/>
					</filter>
				</defs>
				
					<mask maskUnits="userSpaceOnUse" x="2440.265" y="1262.162" width="194.938" height="205.614" id="SVGID_00000092453675924102795990000016077946571314720674_">
					<g style="filter:url(#Adobe_OpacityMaskFilter_00000183948862137691292680000009650135521451305896_);">
					</g>
				</mask>
				
					<linearGradient id="SVGID_00000132060769578519067660000007540044246872905896_" gradientUnits="userSpaceOnUse" x1="3254.3464" y1="1214.7042" x2="3084.0454" y2="1393.9167" gradientTransform="matrix(1 0 0 1 -572.7469 0)">
					<stop  offset="0" style="stop-color:#FFFFFF"/>
					<stop  offset="1" style="stop-color:#000000"/>
				</linearGradient>
				
					<path style="mask:url(#SVGID_00000092453675924102795990000016077946571314720674_);fill:url(#SVGID_00000132060769578519067660000007540044246872905896_);" d="
					M2470.209,1262.162l134.881,0c16.386,0,29.711,13.158,29.88,29.542c0.385,37.365,0.224,101.935,0.015,150.344
					c-0.1,23.153-28.278,34.448-44.358,17.79c-40.39-41.842-100.106-103.732-141.932-147.084
					C2430.396,1293.788,2443.854,1262.162,2470.209,1262.162z"/>
			</g>
		</mask>
		
			<linearGradient id="SVGID_00000062902528542012484620000014648521356323284392_" gradientUnits="userSpaceOnUse" x1="3254.3464" y1="1214.7042" x2="3084.0454" y2="1393.9167" gradientTransform="matrix(1 0 0 1 -572.7469 0)">
			<stop  offset="0" style="stop-color:#FFFFFF"/>
			<stop  offset="1" style="stop-color:#FFFFFF"/>
		</linearGradient>
		<path style="fill:url(#SVGID_00000062902528542012484620000014648521356323284392_);" d="M2470.209,1262.162l134.881,0
			c16.386,0,29.711,13.158,29.88,29.542c0.385,37.365,0.224,101.935,0.015,150.344c-0.1,23.153-28.278,34.448-44.358,17.79
			c-40.39-41.842-100.106-103.732-141.932-147.084C2430.396,1293.788,2443.854,1262.162,2470.209,1262.162z"/>
		<g>
			<path style="fill:#00046A;" d="M1314.861,1516.579c-4.58,0-9.004-2.493-11.26-6.839
				c-96.865-186.699-130.859-380.361-98.301-560.054c29.614-163.457,111.758-310.608,237.559-425.547
				c126.289-115.386,289.355-189.241,459.16-207.956c182.856-20.151,363.906,22.976,523.706,124.761
				c145.044,52.039,255.439,175.098,310.967,346.685c67.607,208.914,39.937,455.315-68.857,613.135
				c-3.979,5.767-11.86,7.209-17.627,3.242c-5.762-3.972-7.212-11.865-3.242-17.627c104.551-151.663,130.918-389.145,65.61-590.947
				c-53.218-164.451-158.589-282.034-296.704-331.094c-0.903-0.32-1.772-0.745-2.583-1.262
				c-351.982-225.005-732.432-122.053-953.335,79.775c-206.436,188.618-350.01,538.604-133.853,955.215
				c3.223,6.214,0.801,13.862-5.415,17.087C1318.821,1516.12,1316.829,1516.579,1314.861,1516.579z"/>
		</g>
		<g>
			<path style="fill:#00046A;" d="M2239.934,780.523c-14.021,11.655-28.081,23.298-42.283,34.788l-44.004,32.683
				c-15.212,10.129-30.386,20.356-45.762,30.266c-15.745,9.309-31.309,18.967-47.236,27.996
				c-63.921,35.803-131.926,64.27-201.863,86.189c-70.144,21.318-142.356,35.701-215.161,42.952l-27.341,2.28
				c-9.109,0.786-18.213,1.604-27.356,1.794l-27.39,1.062c-9.131,0.281-18.25,0.918-27.383,0.693
				c-18.264-0.322-36.521-0.271-54.746-0.908c-18.22-0.952-36.423-2.024-54.6-3.198c-4.189-0.271-7.366-3.887-7.095-8.076
				c0.259-4.021,3.604-7.109,7.578-7.109h0.334c18.047,0.042,36.067,0.185,54.07,0.447c18.005-0.142,36.001-0.969,53.977-1.416
				c8.997-0.015,17.959-0.881,26.931-1.394l26.904-1.746c8.977-0.42,17.903-1.46,26.826-2.468l26.775-2.939
				c4.458-0.515,8.928-0.923,13.374-1.526l13.301-2.06l26.621-3.923l13.306-1.987l13.198-2.583l26.396-5.159l13.188-2.607
				l13.057-3.208l26.106-6.404c4.343-1.094,8.718-2.073,13.037-3.262l12.878-3.828l25.784-7.573
				c8.662-2.31,17.126-5.234,25.591-8.167l25.432-8.674c8.545-2.712,16.804-6.189,25.142-9.47l24.983-9.902
				c8.411-3.11,16.426-7.146,24.624-10.759l24.478-11.111c8.235-3.552,15.996-8.079,24.077-11.956l24.031-12.085
				c15.813-8.45,31.292-17.534,46.973-26.274c15.339-9.314,30.413-19.077,45.706-28.513l44.578-30.361l43.318-32.258l0.247-0.183
				c3.367-2.507,8.127-1.809,10.635,1.558C2243.591,773.391,2243.008,777.956,2239.934,780.523z"/>
		</g>
		<g>
			<path style="fill:#00046A;" d="M2403,775.195c38.311,14.368,74.99,34.158,107.769,59.37
				c32.915,25.041,61.895,55.207,86.406,88.435c12.192,16.672,23.318,34.077,33.408,52.014
				c9.929,18.035,19.009,36.494,26.868,55.427c15.95,37.783,27.62,77.097,35.964,116.875c0.864,4.114-1.772,8.149-5.886,9.014
				c-3.853,0.808-7.637-1.453-8.811-5.122l-0.022-0.068c-12.056-38.108-25.945-75.425-42.485-111.333
				c-8.403-17.888-17.271-35.52-27.261-52.48c-9.773-17.078-20.583-33.499-32.156-49.326c-23.123-31.67-50.076-60.413-80.3-85.4
				c-30.266-24.949-63.828-45.996-99.485-63.428l-0.024-0.01c-3.777-1.846-5.342-6.404-3.494-10.181
				C2395.222,775.435,2399.377,773.852,2403,775.195z"/>
		</g>
		<g>
			<path style="fill:#00046A;" d="M2461.021,784.807c28.835,10.427,55.413,24.597,80.796,41.174
				c25.293,16.594,48.945,35.818,70.361,57.38c10.615,10.869,20.774,22.214,30.154,34.204c9.163,12.141,18.154,24.465,25.725,37.695
				c15.75,26.06,27.363,54.536,35.115,83.752c0.862,3.25-1.074,6.582-4.324,7.444c-2.993,0.793-6.055-0.786-7.195-3.577
				l-0.088-0.217c-5.54-13.535-10.779-27.107-17.676-39.922c-6.414-13.018-13.75-25.544-21.614-37.693
				c-15.762-24.285-34.136-46.824-54.5-67.461c-20.327-20.691-42.717-39.394-66.36-56.428c-11.863-8.46-24.043-16.519-36.55-24.058
				c-12.371-7.661-25.42-14.707-38.24-20.95l-0.334-0.164c-3.018-1.47-4.272-5.107-2.803-8.127
				C2454.858,785.049,2458.142,783.779,2461.021,784.807z"/>
		</g>
		<g>
			<path style="fill:#00046A;" d="M1766.697,1211.213c-6.309,6.76-12.793,11.58-19.631,16.741l-10.449,7.063
				c-3.518,2.3-7.178,4.314-10.771,6.487c-3.572,2.224-7.31,4.102-11.067,5.92l-11.24,5.576c-7.671,3.247-15.317,6.636-23.086,9.663
				c-31.14,12.053-63.792,19.282-96.538,24.009l-12.307,1.704c-4.099,0.591-8.203,1.133-12.332,1.367l-24.717,1.926
				c-8.24,0.771-16.494,0.684-24.739,0.837c-8.247,0.142-16.492,0.242-24.731,0.232c-16.455-0.681-32.893-1.523-49.297-2.454
				c-16.328-1.968-32.656-3.643-48.899-5.859c-3.33-0.454-5.659-3.521-5.205-6.848c0.422-3.093,3.101-5.325,6.147-5.259l0.303,0.005
				c16.233,0.33,32.38,1.196,48.528,1.772c16.147,0.149,32.285,0.227,48.391,0.151c32.156-1.345,64.329-2.639,95.977-7.615
				c31.699-4.363,63.071-11.082,93.25-21.191c7.524-2.556,14.922-5.454,22.385-8.213l10.874-4.812l5.444-2.405l5.295-2.666
				c3.518-1.794,7.141-3.45,10.591-5.361l10.261-5.894c6.458-4.214,13.459-8.665,18.811-13.328l0.32-0.278
				c2.532-2.205,6.37-1.941,8.574,0.591C1768.896,1205.439,1768.782,1208.965,1766.697,1211.213z"/>
		</g>
		<g>
			<path style="fill:#00046A;" d="M1670.125,1261.777c-3.511,5.305-7.102,9.399-11.074,13.635
				c-3.977,4.077-8.01,8.137-12.358,11.772c-8.567,7.488-17.932,13.884-27.561,19.817c-19.355,11.746-40.398,20.247-61.843,26.772
				l-16.216,4.468l-16.433,3.352l-8.232,1.57c-2.754,0.432-5.53,0.713-8.291,1.074l-16.592,1.965
				c-11.074,1.018-22.197,1.13-33.259,1.597c-11.082-0.471-22.134-0.74-33.137-1.506c-3.352-0.234-5.881-3.142-5.647-6.494
				c0.21-2.998,2.554-5.337,5.444-5.632l0.386-0.039c10.774-1.111,21.506-1.633,32.197-2.524l15.955-1.904
				c5.298-0.708,10.654-0.935,15.894-1.938c5.251-0.933,10.505-1.79,15.759-2.617c2.622-0.439,5.261-0.796,7.869-1.301l7.756-1.775
				l15.542-3.364l15.249-4.336c20.225-5.996,39.963-13.564,58.511-23.364c9.165-5.046,18.301-10.264,26.724-16.431
				c8.528-5.825,16.826-12.9,23.457-19.863l0.444-0.466c2.312-2.429,6.152-2.522,8.582-0.212
				C1671.411,1256.091,1671.719,1259.37,1670.125,1261.777z"/>
		</g>
		<g>
			<path style="fill:#00046A;" d="M1780.12,1125.747c-21.309,2.744-42.146,4.68-63.245,6.238
				c-21.042,1.548-42.112,2.554-63.193,3.11c-21.079,0.61-42.183,0.571-63.271,0.01c-21.094-0.437-42.178-1.938-63.21-3.735
				c-4.182-0.359-7.285-4.041-6.926-8.223c0.347-4.077,3.85-7.124,7.898-6.951l0.178,0.01c20.713,0.925,41.436,1.567,62.192,1.157
				c20.745-0.286,41.492-1.084,62.205-2.522c20.71-1.387,41.396-3.213,62.014-5.569c20.557-2.346,41.309-5.142,61.387-8.56
				l0.225-0.037c6.902-1.174,13.45,3.469,14.624,10.371s-3.469,13.45-10.371,14.624
				C1780.474,1125.696,1780.271,1125.725,1780.12,1125.747z"/>
		</g>
		<g style="opacity:0.2;">
			<path style="fill:#00046A;" d="M1824.91,1102.02c0,0-287.332,64.751-416.281-21.969
				c321.242,24.453,702.282-46.976,901.891-366.487C2310.52,868.151,2090.677,1031.381,1824.91,1102.02z"/>
		</g>
		<g>
			<path style="fill:#00046A;" d="M1023.696,592.127c24.514-11.46,50.12-16.355,76.379-17.625
				c26.152-1.167,52.583,1.794,77.856,8.872c6.362,1.594,12.429,4.148,18.647,6.191l9.26,3.271l8.911,4.084
				c5.881,2.842,11.863,5.491,17.629,8.508c5.605,3.315,11.189,6.663,16.709,10.09l8.281,5.12l7.754,5.859l15.334,11.853
				c9.734,8.442,18.787,17.625,27.791,26.675c2.957,2.971,2.944,7.776-0.027,10.732c-2.661,2.647-6.79,2.915-9.746,0.811
				l-0.613-0.437c-5.042-3.579-10.015-7.195-14.917-10.857c-4.993-3.542-9.568-7.617-14.771-10.803l-15.356-9.797l-7.593-4.968
				l-8.003-4.238c-5.349-2.786-10.635-5.654-15.898-8.555c-5.422-2.566-11.013-4.758-16.494-7.163l-8.203-3.645l-8.494-2.857
				c-5.686-1.804-11.267-3.992-17.026-5.51l-17.346-4.343c-5.818-1.284-11.753-1.912-17.61-3.047
				c-5.85-1.272-11.838-1.311-17.766-1.99c-5.94-0.713-11.907-0.671-17.886-0.859c-11.958-0.288-23.918,0.535-35.867,1.77
				c-11.768,1.509-24.016,3.738-34.917,6.821l-0.742,0.21c-4.033,1.14-8.225-1.204-9.368-5.237
				C1018.581,597.432,1020.383,593.672,1023.696,592.127z"/>
		</g>
		<g>
			<path style="fill:#00046A;" d="M956.365,821.667c4.382,10.893,10.276,22.344,16.584,32.883
				c6.357,10.662,13.482,20.83,21.116,30.542c15.43,19.287,33.088,36.724,53.001,51.221c9.929,7.258,20.173,14.168,31.074,19.99
				c5.278,3.218,10.933,5.767,16.406,8.66c5.693,2.446,11.206,5.315,17.014,7.554c22.996,9.507,47.117,16.648,71.899,22.331
				l0.039,0.01c4.106,0.942,6.672,5.034,5.732,9.141c-0.847,3.686-4.233,6.13-7.888,5.911c-26.377-1.565-52.732-6.875-78.057-15.706
				c-25.388-8.674-49.524-21.506-71.289-37.559c-21.746-16.101-40.901-35.74-56.389-57.83
				c-7.781-11.021-14.563-22.715-20.391-34.839c-5.667-12.329-10.547-24.512-13.55-38.401c-0.886-4.102,1.721-8.149,5.825-9.036
				c3.674-0.793,7.302,1.213,8.657,4.59L956.365,821.667z"/>
		</g>
		<g>
			<path style="fill:#00046A;" d="M989.924,886.072c5.913,4.949,13.057,10.112,20.02,14.536c7.161,4.373,14.436,8.496,22.026,11.958
				c15.134,6.958,30.923,12.349,47.261,15.5c4.072,0.808,8.218,1.301,12.324,1.98c2.061,0.3,4.111,0.686,6.182,0.923l6.26,0.376
				c4.17,0.283,8.34,0.779,12.534,0.915c4.202-0.083,8.411-0.124,12.639-0.066l6.345,0.017l6.343-0.537l12.773-0.879
				c8.525-0.833,17.002-2.39,25.75-3.113l0.864-0.071c4.182-0.344,7.852,2.766,8.198,6.948c0.288,3.506-1.858,6.653-5.02,7.783
				c-8.625,3.079-17.385,6.069-26.345,8.423l-13.669,2.708l-6.877,1.255l-6.98,0.635c-18.616,2.297-37.654,0.776-56.277-2.483
				c-18.577-3.799-36.609-10.498-53.013-19.961c-16.47-9.568-31.169-21.155-43.005-37.095c-2.5-3.364-1.797-8.118,1.567-10.615
				c2.874-2.134,6.76-1.934,9.392,0.268L989.924,886.072z"/>
		</g>
		<g>
			<path style="fill:#00046A;" d="M978.093,669.67c7.056-2.881,13.574-5.078,20.503-6.724c6.829-1.914,13.757-3.091,20.696-4.451
				c13.928-1.977,28.042-3.362,42.146-2.964c28.225,0.276,56.384,5.098,83.286,13.665c6.699,2.19,13.184,4.993,19.778,7.471
				c3.262,1.328,6.616,2.451,9.797,3.948l9.456,4.675c6.223,3.267,12.625,6.213,18.672,9.753c5.95,3.708,11.875,7.449,17.737,11.27
				c2.92,1.921,5.916,3.735,8.767,5.747l8.245,6.448l16.323,13.032c5.342,4.443,10.032,9.622,15.054,14.382
				c4.971,4.822,9.849,9.727,14.636,14.685c2.91,3.018,2.825,7.822-0.193,10.735c-2.681,2.588-6.777,2.808-9.697,0.703l-0.623-0.447
				c-10.889-7.827-20.925-16.531-31.741-24.155l-16.445-11.023l-8.14-5.579c-2.791-1.726-5.708-3.25-8.55-4.885
				c-5.732-3.191-11.404-6.46-17.051-9.761c-5.75-3.101-11.802-5.591-17.673-8.42l-8.811-4.236
				c-2.961-1.355-6.072-2.334-9.097-3.523c-6.106-2.234-12.146-4.661-18.286-6.763c-24.709-8.057-50.344-12.917-76.262-14.736
				c-6.487-0.684-12.976-0.54-19.487-0.657c-6.531-0.325-12.988,0.432-19.524,0.564c-6.465,0.557-13.027,0.925-19.426,1.995
				c-3.24,0.413-6.436,0.957-9.592,1.602c-3.152,0.498-6.458,1.255-9.211,1.909l-0.659,0.156c-4.08,0.969-8.174-1.55-9.143-5.63
				C972.698,674.763,974.683,671.06,978.093,669.67z"/>
		</g>
		<g>
			<path style="fill:#00046A;" d="M2376.019,1607.195c0,0-94.632,58.226-209.854-1.182c-6.108-3.149-13.399,0.919-13.898,7.773
				c-1.617,22.205,1.277,66.735,41.027,107.664c55.769,57.423,145.397,44.222,147.457-15.124
				C2343.349,1631.417,2376.019,1607.195,2376.019,1607.195z"/>
		</g>
		<g>
			<path style="fill:#00046A;" d="M2368.467,1590.798c4.099,1.077,7.183,2.778,10.193,5.005c2.986,2.173,5.569,4.873,7.788,7.893
				c2.231,3,3.999,6.45,5.093,10.149c1.191,3.643,1.553,7.686,0.872,11.604c-0.579,3.335-3.752,5.571-7.087,4.99
				c-1.313-0.227-2.456-0.857-3.323-1.741l-0.754-0.769c-2.285-2.322-3.801-4.49-5.496-6.636c-1.689-2.114-3.169-4.277-4.766-6.475
				c-1.555-2.212-3.14-4.463-4.673-6.899c-1.521-2.361-3.254-4.988-4.365-7.725l-0.549-1.35c-1.245-3.064,0.232-6.558,3.296-7.803
				C2365.942,1590.537,2367.261,1590.481,2368.467,1590.798z"/>
		</g>
		<g>
			<path style="fill:#F15168;" d="M2161.769,1673.606c6.196,15.488,16.06,31.929,31.548,47.846
				c43.081,44.367,106.367,46.56,133.912,17.919c0-0.048,0-0.048,0-0.048S2286.531,1664.17,2161.769,1673.606z"/>
		</g>
		<g>
			<path style="fill:#00046A;" d="M2174.519,1597.808c-2.588,3.04-5.64,5.828-8.494,8.416c-2.849,2.666-5.771,5.1-8.506,7.581
				l-7.993,7.234l-7.512,7.432l-0.776,0.769c-2.327,2.302-6.079,2.283-8.381-0.044c-1.167-1.182-1.738-2.747-1.711-4.285
				c0.1-5.271,2-10.232,4.519-14.485c2.517-4.285,5.784-7.834,9.29-10.935c3.525-3.083,7.366-5.62,11.45-7.642
				c4.111-2.048,8.237-3.604,13.127-4.333c3.262-0.483,6.301,1.765,6.785,5.029c0.264,1.765-0.276,3.467-1.343,4.731
				L2174.519,1597.808z"/>
		</g>
		<g>
			<path style="fill:#00046A;" d="M2371.282,1610.4c0.295,0.859,1.277,2.183,2.905,2.705c1.621,0.537,3.037,0.059,3.591-0.273
				l-1.16,0.674l-2.319,1.338l-4.658,2.483c-3.145,1.531-6.267,3.125-9.473,4.502c-6.387,2.817-12.935,5.215-19.539,7.446
				c-13.235,4.434-26.941,7.239-40.754,9.414c-27.749,3.481-56.211,1.921-83.491-4.648l-10.242-2.463l-9.976-3.328l-9.958-3.408
				c-3.342-1.086-6.421-2.788-9.644-4.155l-9.563-4.348l-4.78-2.18c-0.554-0.225-0.325-0.112-0.469-0.149
				c-0.122,0.02-0.337,0.193-0.339,0.254c0,0,0.002,0.049-0.024,0.088c0.012,0.032,0.02,0.066-0.007,0.095l-0.059,1.133
				c-0.078,1.565-0.178,3.127-0.173,4.702c-0.576,25.249,6.995,50.413,20.718,71.602c13.743,21.321,32.756,39.5,55.85,49.143
				c11.482,4.812,23.779,7.854,36.077,8.184c12.241,0.361,24.563-1.699,35.012-6.919c10.447-5.193,18.506-13.877,21.87-24.683
				c1.821-5.54,2.048-10.691,2.59-18.164c0.376-6.963,1.375-13.911,2.354-20.84c2.38-13.816,6.035-27.546,11.816-40.557
				c2.852-6.514,6.265-12.82,10.234-18.823c2.048-2.971,4.221-5.867,6.628-8.625c1.218-1.37,2.439-2.737,3.794-4.038
				c0.637-0.662,1.357-1.304,2.07-1.943c0.349-0.32,0.713-0.64,1.118-0.964l0.591-0.483l0.149-0.12
				c-0.303,0.239-0.977,0.894-1.387,1.804c-0.449,0.918-0.623,2.205-0.408,3.245C2370.43,1609.153,2370.886,1609.91,2371.282,1610.4
				z M2380.754,1603.992c0.315,0.554,0.688,1.375,0.806,2.495c0.134,1.108-0.122,2.458-0.654,3.442
				c-0.493,0.977-1.252,1.694-1.636,2.002l-0.093,0.085l-0.369,0.347c-0.244,0.215-0.5,0.471-0.759,0.74
				c-0.515,0.522-1.033,1.033-1.533,1.624c-1.028,1.104-1.99,2.322-2.952,3.538c-1.904,2.456-3.647,5.085-5.291,7.786
				c-3.245,5.437-6.064,11.187-8.381,17.178c-4.712,11.953-7.546,24.724-9.199,37.639c-0.728,6.484-1.504,12.964-1.675,19.529
				c-0.295,5.994-0.41,14.531-2.729,21.943c-2.175,7.571-6.038,14.768-11.184,20.793c-5.134,6.047-11.453,10.913-18.232,14.558
				c-13.628,7.346-28.862,9.917-43.574,9.575c-14.785-0.288-29.236-3.745-42.72-9.26c-13.455-5.63-25.916-13.499-36.782-23.137
				c-10.854-9.722-20.154-20.513-27.932-32.739c-15.481-24.329-23.94-53.313-23.035-82.266c0.015-1.809,0.139-3.623,0.247-5.435
				l0.088-1.399c0.093-0.806,0.198-1.614,0.349-2.415c0.359-1.609,0.903-3.191,1.67-4.678c3.074-5.994,9.363-9.902,16.028-10.076
				c3.252-0.149,6.838,0.881,9.297,2.19l4.441,2.056l8.877,4.121c2.988,1.296,5.85,2.937,8.943,3.958l9.185,3.328l9.187,3.342
				l9.436,2.505c25.146,6.76,51.509,8.804,77.544,6.34c12.976-1.514,25.967-3.594,38.584-7.253c6.296-1.838,12.546-3.86,18.66-6.226
				c3.081-1.121,6.064-2.449,9.08-3.711l4.421-2.048l2.139-1.082l1.067-0.542c0.918-0.544,2.7-1.238,4.685-0.916
				C2378.75,1602.234,2380.095,1603.345,2380.754,1603.992z"/>
		</g>
		<g>
			<path style="fill:#00046A;" d="M2337.358,1836.394c-6.636,5.479-13.264,9.536-20.454,13.323
				c-3.547,1.909-7.271,3.413-10.925,5.139c-3.738,1.499-7.546,2.842-11.36,4.192c-15.354,5.125-31.763,7.441-48.145,7.107
				l-6.147-0.115l-6.113-0.715c-4.058-0.591-8.179-0.803-12.17-1.733l-11.914-3.013c-4.006-0.857-7.71-2.69-11.526-4.097
				c-7.747-2.615-14.7-6.88-21.721-10.791c-3.569-1.87-6.631-4.529-9.858-6.88c-3.184-2.419-6.301-4.895-9.353-7.41
				c-3.047-2.51-3.481-7.012-0.974-10.059c2.08-2.524,5.532-3.257,8.386-2.002l0.784,0.347c3.391,1.492,6.714,3.02,9.976,4.604
				c3.308,1.484,6.35,3.455,9.824,4.49c6.721,2.507,13.188,5.452,20.071,7.078c13.433,4.216,27.346,6.16,41.255,6.511
				c13.926,0.466,27.988-1.033,41.841-4.158l10.354-2.622c3.391-1.079,6.87-2.009,10.242-3.21
				c6.758-2.178,13.684-5.056,19.824-7.761l0.664-0.293c3.618-1.594,7.842,0.046,9.436,3.665
				C2340.674,1830.989,2339.766,1834.407,2337.358,1836.394z"/>
		</g>
		<g>
			<g>
				<path style="fill:#FCD5B4;" d="M2981.78,2264.239c-67.341,50.612-102.65-5.181-102.65-5.181
					c-108.601-0.731-119.424-131.278-119.424-131.278c-3.556-32.7,7.291-52.802,19.638-64.904h0.05
					c13.647-13.353,29.147-16.906,29.147-16.906c-0.77-114.55,29.724-141.805,58.226-132.16
					c28.552,9.645,24.068,101.146,24.068,101.146l12.402,8.948c0,0,25.543-39.205,48.087-71.909
					c22.594-32.754,64.695-26.562,63.001,6.438c-1.744,32.951-31.483,91.206-31.483,91.206l50.974,134.991c0,0,0.95,1.85,1.351,5.4
					C3036.269,2200.579,3032.173,2226.38,2981.78,2264.239z"/>
			</g>
			<g style="opacity:0.2;">
				<path style="fill:#00046A;" d="M2981.78,2264.239c-67.341,50.612-102.65-5.181-102.65-5.181
					c-108.601-0.731-119.424-131.278-119.424-131.278c-3.556-32.7,7.291-52.802,19.638-64.904h0.05
					c0,0-13.878,120.952,103.768,97.481c-4.446,24.101-5.188,64.4,35.764,75.493c59.502,16.14,67.391-51.562,67.391-51.562
					l48.851,5.741C3036.269,2200.579,3032.173,2226.38,2981.78,2264.239z"/>
			</g>
			<g>
				<path style="fill:#00046A;" d="M2928.293,2298.151c-4.287,0.002-8.525-0.381-12.72-1.147
					c-21.87-4.001-36.196-17.598-42.866-25.461c-90.127-4.612-121.592-94.487-125.615-142.568
					c-5.874-55.068,25.293-82.498,48.794-92.193c0.576-68.845,12.905-112.419,36.685-129.58c11.177-8.069,24.79-9.98,38.32-5.398
					c29.063,9.856,33.149,65.903,33.037,97.998c9.59-14.517,23.853-35.935,37.002-55.007c15.005-21.77,40.078-32.014,60.972-24.9
					c16.46,5.601,26.069,20.623,25.093,39.204c-1.563,29.683-22.881,75.896-30.342,91.257l48.862,129.458
					c3.164,7.268,13.267,42.407-56.167,94.578C2968.318,2290.192,2947.839,2298.151,2928.293,2298.151z M2772.336,2126.723
					c0.435,5.015,11.343,119.004,106.841,119.656c4.312,0.029,8.311,2.251,10.62,5.894c0.059,0.09,10.908,16.387,30.64,19.851
					c15.981,2.81,34.048-3.245,53.687-17.996c51.519-38.708,48.901-60.815,48.218-63.909c-0.273-0.413-0.083-0.239-0.396-1.072
					l-50.952-135c-1.26-3.34-1.055-7.058,0.566-10.237c7.939-15.552,28.818-61.345,30.122-86.142
					c0.386-7.285-2.29-11.953-7.944-13.879c-8.608-2.932-22.344,1.372-31.938,15.291c-22.207,32.212-47.666,71.24-47.92,71.631
					c-1.89,2.9-4.888,4.9-8.291,5.537c-3.384,0.645-6.919-0.146-9.727-2.173l-12.397-8.926c-3.486-2.51-5.464-6.614-5.254-10.898
					c2.065-42.896-5.303-85.098-15.459-88.543c-5.874-1.995-10.757-1.37-15.347,1.946c-8.066,5.82-26.758,28.977-26.182,118.118
					c0.039,5.94-4.053,11.111-9.839,12.437c-4.556,1.111-45.059,12.642-39.077,68.105
					C2772.322,2126.515,2772.332,2126.618,2772.336,2126.723z M3022.585,2190.568L3022.585,2190.568L3022.585,2190.568z"/>
			</g>
			<g>
				<path style="fill:#00046A;" d="M2805.994,2033.542c10.117-1.887,19.331-2.732,29.407-2.725
					c9.949,0.195,20.374,1.011,31.487,5.92c5.474,2.444,11.274,6.538,15.449,12.48c4.272,5.884,6.162,13.232,6.321,19.39
					c0.198,5.422-0.156,11.15-1.641,17.029c-1.47,5.852-4.294,11.887-8.55,16.929c-4.207,5.103-9.753,8.855-15.378,11.328
					c-1.418,0.613-2.847,1.16-4.287,1.621c-0.718,0.256-1.443,0.432-2.166,0.647l-0.544,0.151l-0.271,0.073
					c-0.112,0.034,0.374-0.088,0.53-0.144c0.898-0.291,1.877-0.762,2.764-1.396c3.689-2.715,4.954-7.129,3.774-11.03
					c-0.574-1.987-1.931-3.877-3.459-5.027l-0.588-0.41c-0.054-0.034,0.103,0.066,0.142,0.093l0.403,0.264l0.806,0.53
					c8.511,5.696,16.431,12.366,22.979,20.588c6.438,8.267,11.233,18.118,13.464,28.481c2.222,10.366,1.667,21.121-1.516,30.664
					c-1.348,4.038-5.713,6.218-9.751,4.871c-2.695-0.898-4.563-3.145-5.107-5.74l-0.085-0.43c-1.714-8.311-3.613-15.757-6.57-22.588
					c-2.886-6.838-6.692-13.052-11.216-18.962c-4.614-5.818-10.039-11.426-16.414-15.735l-2.012-1.421
					c-2.422-1.826-4.456-4.67-5.359-7.729c-1.88-6.042,0.198-13,5.735-17.012c1.333-0.967,2.827-1.689,4.26-2.141l1.326-0.393
					c0.352-0.11,0.723-0.181,1.055-0.313c0.698-0.222,1.36-0.481,2.002-0.757c2.539-1.15,4.626-2.573,6.113-4.429
					c3.062-3.513,4.517-9.417,4.238-16.555c-0.11-2.786-0.708-4.451-1.726-5.862c-0.996-1.401-2.642-2.859-5.342-4.053
					c-5.33-2.454-13.174-3.542-21.067-3.589c-7.856-0.054-16.577,0.796-24.084,2.202l-0.461,0.088
					c-6.877,1.289-13.501-3.24-14.79-10.117c-1.292-6.88,3.24-13.501,10.117-14.79L2805.994,2033.542z"/>
			</g>
			<g>
				<path style="fill:#FCD5B4;" d="M2985.018,2055.412c0,0-48.468,26.244-41.588,62.504s33.285,32.169,45.558,25.661
					s42.944-25.847,46.296-48.347S3020.469,2039.396,2985.018,2055.412z"/>
			</g>
			<g>
				<path style="fill:#FCD5B4;" d="M2988.987,2143.578c0,0-15.805,14.132-2.231,33.285c13.574,19.153,51.88,13.388,71.033-10.785
					s2.417-67.28-26.685-59.115C3021.195,2122.901,3006.901,2134.875,2988.987,2143.578z"/>
			</g>
			<g>
				<path style="fill:#00046A;" d="M2972.009,2160.539c-5.605,0-11.372-1.069-16.851-3.699c-8.652-4.16-19.873-13.877-24.18-36.56
					c-8.506-44.841,45.693-74.761,48.003-76.013c0.269-0.144,0.542-0.278,0.82-0.405c24.072-10.876,40.664-2.683,48.403,3.172
					c14.326,10.825,22.393,31.411,19.614,50.063c-4.448,29.854-41.611,51.694-52.896,57.678
					C2988.796,2158.024,2980.598,2160.539,2972.009,2160.539z M2990.735,2066.738c-3.896,2.271-39.585,23.882-34.854,48.816
					c1.284,6.782,4.111,15.488,10.254,18.44c5.034,2.415,12.114,0.933,16.914-1.611c17.72-9.397,37.705-25.615,39.702-39.019
					c1.23-8.254-2.109-20.281-9.824-26.111C3007.239,2062.953,2999.778,2062.785,2990.735,2066.738z"/>
			</g>
			<g>
				<path style="fill:#00046A;" d="M3012.59,2200.978c-0.532,0-1.064-0.007-1.602-0.022c-14.917-0.4-27.192-6.355-34.575-16.765
					c-15.913-22.454-4.258-42.563,4.126-50.061c0.874-0.781,1.855-1.438,2.91-1.951c16.44-7.988,28.511-18.425,36.895-31.909
					c1.67-2.69,4.292-4.656,7.339-5.51c16.445-4.604,32.183,1.536,42.1,16.44c10.811,16.243,13.574,43.013-2.061,62.747
					C3054.617,2190.488,3033.127,2200.978,3012.59,2200.978z M2996.599,2153.949c-2.476,2.957-4.717,8.232,0.498,15.583
					c3.579,5.051,10.664,5.981,14.57,6.086c11.05,0.315,26.338-4.976,36.191-17.412c7.744-9.775,6.499-24.436,0.825-32.964
					c-2.817-4.231-6.211-6.438-10.132-6.592C3028.284,2133.185,3014.202,2145.036,2996.599,2153.949z"/>
			</g>
			<g style="opacity:0.2;">
				<path style="fill:#00046A;" d="M2883.711,2160.257c-0.2,0.05-0.35,0.05-0.55,0.1c1.998-10.901,4.797-18.451,4.797-18.451
					L2883.711,2160.257z"/>
			</g>
		</g>
		<g>
			<path style="fill:#00046A;" d="M2710.376,2156.418c-6.235,1.526-13.542,4.041-20.212,6.699
				c-6.804,2.693-13.491,5.784-20.007,9.226c-6.541,3.408-12.9,7.197-18.999,11.396c-6.199,4.092-11.929,8.799-17.6,13.657
				l-0.173,0.149c-2.102,1.799-5.261,1.555-7.061-0.544c-1.614-1.882-1.582-4.619-0.046-6.46c5.056-6.072,10.313-12.09,16.13-17.522
				c5.728-5.544,11.821-10.725,18.203-15.549c6.357-4.861,12.988-9.397,19.885-13.567c7.017-4.219,13.726-7.974,21.938-11.555
				c6.443-2.81,13.943,0.137,16.753,6.58c2.808,6.443-0.137,13.943-6.58,16.753c-0.654,0.286-1.321,0.51-1.99,0.679
				L2710.376,2156.418z"/>
		</g>
		<g>
			<path style="fill:#00046A;" d="M2479.043,2393.066c1.677-19.822,2.874-40.061,3.784-60.146
				c0.896-20.127,1.433-40.276,1.628-60.427c0.305-40.295-0.869-80.63-5.149-120.649l-0.005-0.046
				c-0.293-2.747,1.694-5.212,4.441-5.505c2.637-0.283,5.015,1.553,5.461,4.128c6.899,40.269,10.657,80.955,12.92,121.658
				c1.089,20.356,1.831,40.732,2.212,61.121c0.359,20.427,0.449,40.701,0.01,61.345c-0.149,7.002-5.947,12.559-12.949,12.41
				s-12.556-5.947-12.407-12.949c0.005-0.256,0.017-0.51,0.039-0.762L2479.043,2393.066z"/>
		</g>
		<g>
			<path style="fill:#00046A;" d="M2852.908,2351.105c-21.831,0-41.543-5.43-59.019-16.299
				c-79.141-49.211-80.015-191.711-80.01-197.754c0-6.997,5.669-12.666,12.666-12.666h0.005c6.997,0,12.666,5.669,12.671,12.666
				c0.005,1.34,0.884,134.512,68.086,176.252c30.83,19.146,72.314,16.084,123.306-9.082c6.284-3.093,13.877-0.525,16.973,5.757
				c3.101,6.277,0.522,13.875-5.752,16.973C2909.211,2343.049,2879.495,2351.105,2852.908,2351.105z"/>
		</g>
		<g>
			<path style="fill:#0096F0;" d="M1866.9,3650.355c-111.95,32.4-237.8,35.099-377.15,9c-7.25-1.35-13.75-5.65-17.65-11.95
				c-4.85-7.8-8.199-18.5,2.6-25.55c4.501-2.95,9.85-4.15,15.2-3.8c1.65,0.15,3.35,0.4,5.05,0.85c15.9,4.1,55.4,12.65,103.35,11.85
				c8.301-0.05,16.901-0.5,25.651-1.25c0,0,40.15-138.6,152.2-155.7c0,0,0.05,0.1,0.15,0.25c0.4,0.75,1.7,3.099,4.05,6.449
				c5.8,8.25,18.049,22.7,38.95,35.2c6.75,4,13.4,9.55,19.6,16.4C1861.55,3557.104,1877.8,3599.704,1866.9,3650.355z"/>
		</g>
		<g style="opacity:0.2;">
			<path style="fill:#00046A;" d="M1866.9,3650.355c-111.95,32.4-237.8,35.099-377.15,9c-7.25-1.35-13.75-5.65-17.65-11.95
				c-4.85-7.8-8.199-18.5,2.6-25.55c4.501-2.95,9.85-4.15,15.2-3.8c1.65,0.15,3.35,0.4,5.05,0.85c15.9,4.1,55.4,12.65,103.35,11.85
				c24.7,4.45,54.301,5.05,84.2,2c76.9-7.7,155.55-39.5,156.15-92c0.05-3,0.1-5.9,0.25-8.65
				C1861.55,3557.104,1877.8,3599.704,1866.9,3650.355z"/>
		</g>
		<g>
			<path style="fill:#00046A;" d="M1669.392,3689.582c-57.925,0.005-118.677-5.913-181.958-17.759
				c-10.903-2.041-20.425-8.506-26.128-17.744c-12.515-20.273-4.888-35.425,6.426-42.842c8.599-5.649,19.668-7.319,30.366-4.59l0,0
				c17.622,4.502,63.052,14.17,116.411,10.859c11.094-31.729,56.338-140.449,159.732-156.23c5.439-0.82,10.737,1.914,13.213,6.787
				c0.073,0.137,10.879,20.366,38.34,36.758c37.607,22.451,68.062,80.557,53.496,148.179c-0.981,4.561-4.385,8.208-8.862,9.507
				C1808.157,3680.553,1740.935,3689.582,1669.392,3689.582z M1487.927,3630.7c-2.368,0-4.556,0.586-6.294,1.729
				c-1.24,0.815-2.778,1.821,1.24,8.335c1.963,3.179,5.322,5.415,9.219,6.147c134.404,25.151,256.748,22.915,363.823-6.641
				c9.595-58.604-19.932-99.849-43.11-113.682c-22.651-13.521-36.118-29.346-42.773-38.774
				c-96.597,20.977-133.569,143.96-133.941,145.234c-1.465,5.015-5.859,8.633-11.064,9.087
				c-60.845,5.303-113.408-5.879-133.198-10.928l0,0C1490.505,3630.871,1489.187,3630.7,1487.927,3630.7z"/>
		</g>
	</g>
</g>
</svg>
